<svg width="275" height="72" viewBox="0 0 275 72" fill="none" xmlns="http://www.w3.org/2000/svg">
<path d="M32.0934 34.4452C31.7995 33.6517 31.7407 32.7994 32.0346 31.9764C32.0934 31.7707 31.535 31.8589 31.4762 32.0352C31.2117 32.8581 31.2411 33.7398 31.535 34.5627C31.5938 34.7979 32.1816 34.6215 32.0934 34.4452Z" fill="#ED1C24"/>
<path d="M27.1262 31.8588C27.1262 31.8588 27.8022 23.1888 32.4751 18.075C37.1481 12.9611 38.8233 7.84731 37.8241 5.73124C36.8248 3.61517 33.5332 3.2331 32.8278 4.90832C32.3282 6.08392 32.8866 7.40646 33.9446 7.52402C35.0027 7.64158 35.0027 7.64158 35.0027 7.64158C35.0027 7.64158 34.0622 7.31829 34.0622 6.37782C34.0622 5.43734 36.1195 5.261 36.4428 6.43659C36.7661 7.61219 36.2076 11.6092 31.9461 16.9875C27.6258 22.3659 26.7441 28.0969 27.1262 31.8588Z" fill="#F26522"/>
<path d="M44.9658 25.2168C44.9658 25.2168 53.6064 26.1573 58.5733 30.9772C63.5402 35.7972 68.5952 37.6193 70.7407 36.6789C72.8862 35.7384 73.3858 32.4761 71.74 31.712C70.5938 31.1536 69.2418 31.6826 69.0949 32.7406C68.9479 33.7987 68.9479 33.7987 68.9479 33.7987C68.9479 33.7987 69.3006 32.8582 70.2411 32.8876C71.1815 32.917 71.2991 34.9743 70.1235 35.2682C68.9479 35.562 64.9509 34.8861 59.7195 30.4482C54.4587 26.0397 48.7571 24.9523 44.9658 25.2168Z" fill="#F26522"/>
<path d="M48.7576 40.0586C48.7576 40.0586 47.8172 48.6992 42.9972 53.6661C38.1773 58.633 36.3551 63.688 37.2956 65.8335C38.2361 67.9789 41.4984 68.4786 42.2625 66.8327C42.8209 65.6865 42.2919 64.3346 41.2339 64.1876C40.1758 64.0407 40.1758 64.0407 40.1758 64.0407C40.1758 64.0407 41.1163 64.3934 41.0869 65.3338C41.0575 66.2743 39.0002 66.3919 38.7063 65.2163C38.4124 64.0407 39.0884 60.0437 43.5263 54.8123C47.9641 49.5515 49.0222 43.8499 48.7576 40.0586Z" fill="#F26522"/>
<path d="M39.4707 7.90625C39.4707 7.90625 45.3193 12.7556 45.8483 18.0751C46.4067 23.4241 46.0246 23.9531 46.0246 23.9531C46.0246 23.9531 43.0269 9.46391 39.4707 7.90625Z" fill="#F26522"/>
<path d="M64.5983 38.9414C64.5983 38.9414 59.602 44.643 54.2531 45.0545C48.9041 45.4659 48.3457 45.0545 48.3457 45.0545C48.3457 45.0545 62.9524 42.4682 64.5983 38.9414Z" fill="#F26522"/>
<path d="M35.2975 61.8654C35.2975 61.8654 29.302 57.2218 28.5672 51.9317C27.8325 46.6121 28.2145 46.0537 28.2145 46.0537C28.2145 46.0537 31.7119 60.4253 35.2975 61.8654Z" fill="#F26522"/>
<path d="M32.0345 25.5691C32.0345 25.5691 23.3939 26.5096 18.427 31.3295C13.4602 36.1494 8.4051 37.9716 6.25964 37.0311C4.11419 36.0906 3.61456 32.8284 5.26039 32.0642C6.40659 31.5058 7.75853 32.0348 7.90548 33.0929C8.05242 34.1509 8.05242 34.1509 8.05242 34.1509C8.05242 34.1509 7.69975 33.2104 6.75927 33.2398C5.8188 33.2692 5.70124 35.3265 6.87683 35.6204C8.05242 35.9143 12.0494 35.2383 17.2808 30.8005C22.5416 26.3626 28.2432 25.3046 32.0345 25.5691Z" fill="#F26522"/>
<path d="M12.3438 39.7354C12.3438 39.7354 17.34 45.437 22.689 45.8484C28.0379 46.2599 28.5963 45.8484 28.5963 45.8484C28.5963 45.8484 14.019 43.2327 12.3438 39.7354Z" fill="#F26522"/>
<path d="M30.3008 28.5674C31.6821 27.0685 33.5924 26.9804 35.4734 26.8922C39.7349 26.6865 42.8209 27.6857 44.4079 32.2706" fill="#ED1C24"/>
<path d="M30.5655 28.5373C32.6522 26.5094 37.1194 26.5682 39.7939 27.4793C42.0275 28.214 43.3501 30.1832 44.1142 32.3286C44.173 32.4462 44.7314 32.2698 44.6726 32.1817C43.5558 29.1545 41.5279 27.2736 38.3244 26.8621C35.6205 26.5094 32.0938 26.627 30.0365 28.6255C29.9189 28.7137 30.4479 28.6549 30.5655 28.5373Z" fill="#F15A29"/>
<path d="M42.1152 27.3916C44.1137 29.4783 45.8771 31.0653 46.3768 33.8574C46.8764 36.7376 46.6707 39.2357 45.2893 41.7926" fill="#ED1C24"/>
<path d="M40.0282 28.3907C41.6446 30.0953 43.3786 31.6823 44.0252 34.0041C44.7012 36.5317 44.3191 39.2355 43.1141 41.5573C42.5851 42.586 43.5844 43.3501 44.4954 43.4383C45.5829 43.5558 46.9348 43.0856 47.4638 42.0569C48.9039 39.2355 49.139 36.3553 48.6688 33.24C48.228 30.4186 46.0825 28.3613 44.2015 26.3922C42.7908 24.9227 38.4705 26.7448 40.0282 28.3907Z" fill="#F15A29"/>
<path d="M42.8215 29.6254C40.6466 28.2734 37.4431 27.0978 34.9156 28.1265C33.4167 28.8025 31.2713 29.9193 31.0361 31.712" fill="#ED1C24"/>
<path d="M44.5551 28.3025C41.6161 26.5391 38.295 25.5105 34.9152 26.4216C32.2995 27.0975 29.2724 29.1254 28.7433 31.8881C28.3025 34.1511 32.9461 33.5927 33.3575 31.5354C33.5927 30.4186 35.2091 29.6838 36.2084 29.4193C37.7366 29.0079 39.8233 30.1835 41.0577 30.9182C42.0569 31.506 43.4089 31.3297 44.32 30.6537C45.0547 30.1247 45.5543 28.8903 44.5551 28.3025Z" fill="#F15A29"/>
<path d="M29.5659 33.3574C28.596 37.0018 30.3006 42.4389 34.6209 42.5858L29.5659 33.3574Z" fill="#ED1C24"/>
<path d="M27.2444 33.5047C26.1276 38.1483 28.5964 43.9381 33.8572 44.3202C34.974 44.4083 36.2965 44.0263 36.7961 42.9095C37.237 41.9102 36.3847 40.9697 35.3854 40.8816C31.888 40.6464 31.1827 35.9147 31.8586 33.2108C32.1232 32.0646 30.5655 31.565 29.7426 31.6238C28.5964 31.6825 27.5383 32.3585 27.2444 33.5047Z" fill="#F15A29"/>
<path d="M43.4966 42.7324C40.8809 44.9073 36.4137 45.113 33.4453 43.6141L43.4966 42.7324Z" fill="#ED1C24"/>
<path d="M41.9976 41.7633C40.1166 43.2328 37.3246 43.3504 35.1791 42.3511C34.1211 41.8515 32.8867 41.9397 31.9169 42.645C31.2703 43.1152 30.5943 44.379 31.6524 44.8786C35.8551 46.8478 41.2334 46.5832 44.9659 43.6737C45.6713 43.1152 46.2003 42.0572 45.2305 41.44C44.3194 40.8522 42.8499 41.1167 41.9976 41.7633Z" fill="#F15A29"/>
<path d="M32.9756 31.418C31.4767 36.473 35.4443 40.9697 40.2643 41.4693L32.9756 31.418Z" fill="#ED1C24"/>
<path d="M30.6833 31.624C29.1257 37.5313 33.8574 42.2925 39.4709 43.0272C40.5289 43.1742 41.9396 42.6452 42.4393 41.6753C42.9683 40.6467 41.969 40.0295 41.0873 39.9119C36.8258 39.3535 34.1807 35.2977 35.2681 31.2125C35.8266 29.1552 31.183 29.743 30.6833 31.624Z" fill="#F15A29"/>
<path d="M41.6153 33.3574C42.8791 36.1201 41.0275 39.7056 38.5 40.9694L41.6153 33.3574Z" fill="#ED1C24"/>
<path d="M39.3523 33.9455C40.2928 36.2379 39.3523 39.2063 37.1187 40.4113C36.5897 40.7052 35.6492 41.5575 36.6485 41.9395C37.6477 42.3216 38.9703 41.9395 39.8519 41.4399C42.8497 39.7941 45.2891 36.1791 43.8784 32.7111C43.3199 31.3298 38.8527 32.7405 39.3523 33.9455Z" fill="#F15A29"/>
<path d="M35.0625 32.0052C38.5011 31.77 42.7332 38.3534 39.6179 40.7927L35.0625 32.0052Z" fill="#ED1C24"/>
<path d="M34.1214 33.0928C36.5608 33.0634 39.97 38.7063 37.8246 40.5578C37.1486 41.1456 37.2074 41.7334 38.1772 41.851C39.1765 41.9685 40.6166 41.6746 41.3807 40.9987C45.5835 37.3543 40.5872 30.8004 36.0024 30.8886C35.0031 30.918 33.6512 31.2706 32.9752 32.0642C32.2993 32.8871 33.563 33.1222 34.1214 33.0928Z" fill="#F15A29"/>
<path d="M34.9141 33.9453C36.4717 36.708 37.9706 39.3237 41.321 39.8233L34.9141 33.9453Z" fill="#ED1C24"/>
<path d="M32.6511 34.5622C34.3851 37.6482 36.2073 40.3814 39.9398 41.0574C40.9978 41.2631 42.3204 40.9104 43.1433 40.2051C43.8486 39.5879 43.6723 38.8238 42.7318 38.6474C39.9398 38.1478 38.4997 35.6497 37.2065 33.3573C36.3248 31.829 31.9751 33.3573 32.6511 34.5622Z" fill="#F15A29"/>
<path d="M36.1191 29.4785C40.5276 29.7136 44.2307 32.5351 43.349 37.2374L36.1191 29.4785Z" fill="#ED1C24"/>
<path d="M34.6205 30.3303C38.7057 30.6242 41.7622 33.6514 41.0568 37.8247C40.9981 38.1774 45.3772 37.9129 45.6123 36.6198C46.4352 31.5353 42.1149 28.9196 37.5888 28.6257C36.5602 28.5669 35.267 28.9784 34.3854 29.478C33.6212 29.9189 33.8269 30.2716 34.6205 30.3303Z" fill="#F15A29"/>
<path d="M43.3497 38.7949C42.8207 40.3526 42.3211 41.7633 40.5283 41.9984L43.3497 38.7949Z" fill="#ED1C24"/>
<path d="M41.0576 39.0888C40.8813 39.6472 40.6756 40.2056 40.4405 40.6171C40.3817 40.7053 40.3229 40.7934 40.2641 40.8816C39.9996 41.2637 40.4992 40.7053 40.1466 41.0286C39.8527 41.3225 40.3817 40.911 40.4405 40.911C41.087 40.5877 40.176 40.911 40.7931 40.8228C39.9408 40.9404 38.4713 41.3519 38.2068 42.3511C37.9423 43.3504 39.6175 43.3797 40.1466 43.2916C41.7042 43.0565 43.2325 42.4687 44.2905 41.2343C44.9371 40.4702 45.2604 39.5003 45.5837 38.5598C45.907 37.5606 44.1142 37.5606 43.6439 37.6193C42.7623 37.6781 41.4103 38.119 41.0576 39.0888Z" fill="#F15A29"/>
<path d="M36.0321 30.5068C35.5913 30.8889 35.1504 31.2416 34.8271 31.6236L36.0321 30.5068Z" fill="#ED1C24"/>
<path d="M34.5624 29.6545C34.004 30.1248 33.4162 30.5656 32.9753 31.124C32.7108 31.4473 32.4463 31.8294 32.5639 32.2702C32.6814 32.7111 33.0929 32.9462 33.475 33.0637C34.0334 33.2107 34.6505 33.1813 35.1796 33.0344C35.6792 32.8874 36.3258 32.6229 36.6784 32.2114C36.9723 31.8294 37.3544 31.5355 37.7365 31.2122C37.5895 31.3297 37.472 31.4473 37.325 31.5355C37.3838 31.5061 37.4132 31.4473 37.472 31.4179C37.8246 31.124 38.2067 30.8301 38.2949 30.3305C38.3537 29.919 38.1479 29.537 37.7953 29.3312C37.3544 29.0667 36.7666 29.0079 36.267 29.0667C35.738 29.0961 35.0032 29.2725 34.5624 29.6545Z" fill="#F15A29"/>
<path d="M36.2656 43.4092C37.2355 43.9382 38.4405 44.2909 39.4691 44.0851L36.2656 43.4092Z" fill="#ED1C24"/>
<path d="M34.4734 44.5546C35.9135 45.2893 37.5594 45.7008 39.1758 45.4363C40.0575 45.2893 41.527 44.8779 41.7327 43.8198C41.9385 42.7912 40.4102 42.6148 39.7342 42.7324C39.6754 42.7324 39.0582 42.7618 39.4991 42.7618C38.9113 42.7618 39.7636 42.85 39.1758 42.703C38.7644 42.6148 38.4411 42.4679 38.0296 42.2328C37.0597 41.7331 35.6784 42.0564 34.7967 42.6148C34.1795 43.0557 33.5036 44.0549 34.4734 44.5546Z" fill="#F15A29"/>
<path d="M29.5654 32.2998C28.6837 36.385 30.7704 41.1755 35.2964 41.6164L29.5654 32.2998Z" fill="#ED1C24"/>
<path d="M27.8608 32.564C26.9497 37.1782 29.3009 41.7631 34.209 42.4096C35.0025 42.4978 35.9724 42.2333 36.6189 41.7631C37.1773 41.3516 37.0304 40.9108 36.3838 40.852C32.2399 40.323 30.5352 35.7381 31.2406 32.0644C31.4463 31.0358 28.0371 31.6236 27.8608 32.564Z" fill="#F15A29"/>
<path d="M33.416 42.5277C35.0618 43.0567 37.6775 42.7628 39.294 42.4395C41.6746 42.0574 43.3204 40.441 44.5254 38.4131" fill="#ED1C24"/>
<path d="M32.4461 43.6147C34.9442 44.2907 37.5599 43.938 40.058 43.4678C42.7619 42.9387 44.7898 40.8227 46.1711 38.589C46.612 37.8543 45.7891 37.2959 45.1425 37.2371C44.2902 37.1489 43.3791 37.531 42.9088 38.2658C42.0859 39.6177 41.0573 40.8227 39.4408 41.2635C37.9126 41.675 35.9435 41.8513 34.4152 41.4399C33.5923 41.2047 32.593 41.4399 32.0052 42.0864C31.5056 42.6154 31.6819 43.409 32.4461 43.6147Z" fill="#F15A29"/>
<path d="M45.4944 34.0039C46.5231 37.8834 44.6127 41.6747 41.0859 43.5556L45.4944 34.0039Z" fill="#ED1C24"/>
<path d="M43.7906 34.4743C44.6429 37.9717 43.1441 41.234 40.0287 42.9974C39.4997 43.2912 39.0589 44.0554 39.7642 44.4375C40.5284 44.8489 41.4982 44.5256 42.1742 44.1436C45.9949 41.9981 48.2579 37.9423 47.1999 33.5926C46.906 32.2701 43.4967 33.1811 43.7906 34.4743Z" fill="#F15A29"/>
<path d="M34.4746 28.1259C37.972 27.6851 41.0285 28.361 43.6442 30.8004L34.4746 28.1259Z" fill="#ED1C24"/>
<path d="M34.2096 28.9785C37.178 28.6259 39.8231 29.4194 42.0567 31.4473C42.8796 32.2114 46.0537 30.9183 45.2308 30.1541C42.2624 27.4797 38.6181 26.8037 34.7386 27.2445C34.1214 27.3033 33.0046 27.656 32.7989 28.332C32.5638 29.0961 33.8569 29.0373 34.2096 28.9785Z" fill="#F15A29"/>
<path d="M39.0879 30.8008C40.7925 31.6237 43.5551 37.4429 40.7925 38.4715L39.0879 30.8008Z" fill="#ED1C24"/>
<path d="M37.7655 31.6818C38.7648 32.2402 39.3526 33.5628 39.764 34.562C39.9992 35.1204 40.6457 37.4422 40.1167 37.6773C39.6465 37.8831 38.706 38.559 39.235 39.1762C39.764 39.764 40.8809 39.5583 41.498 39.2938C43.5259 38.3533 43.9668 36.6193 43.4672 34.562C43.0557 32.8868 41.9977 30.8001 40.44 29.9184C39.3526 29.3306 36.2373 30.8589 37.7655 31.6818Z" fill="#F15A29"/>
<path d="M33.416 37.5312C34.2977 39.2359 36.3844 39.9118 38.1772 39.853L33.416 37.5312Z" fill="#ED1C24"/>
<path d="M31.8585 38.2073C32.9753 40.1764 35.4147 40.9405 37.5602 40.8817C38.3537 40.8524 39.3529 40.6466 39.7938 39.9119C40.2052 39.2359 39.4411 38.7657 38.8239 38.7657C37.2369 38.7951 35.7968 38.266 35.0032 36.8259C34.3861 35.7385 31.0944 36.8553 31.8585 38.2073Z" fill="#F15A29"/>
<path d="M34.9141 31.9169C36.7656 31.7993 39.587 32.2402 40.2042 34.2975L34.9141 31.9169Z" fill="#ED1C24"/>
<path d="M34.8853 32.1236C36.7369 32.0354 39.2056 32.3881 39.911 34.3866C39.9991 34.6217 40.5575 34.4748 40.4694 34.2397C39.6758 32.0061 36.972 31.6534 34.9147 31.7415C34.6208 31.7415 34.5032 32.153 34.8853 32.1236Z" fill="#F15A29"/>
<path d="M36.4717 30.1836C37.9118 30.9183 39.2637 32.7699 39.8809 34.3276L36.4717 30.1836Z" fill="#ED1C24"/>
<path d="M36.2075 30.2718C37.7946 31.1241 38.9408 32.7699 39.6167 34.3863C39.6755 34.5039 40.2339 34.3276 40.1751 34.2394C39.4992 32.5936 38.353 30.9477 36.7365 30.066C36.5896 30.0073 36.1487 30.2424 36.2075 30.2718Z" fill="#F15A29"/>
<path d="M37.6182 31.418C37.4125 31.6237 37.0892 31.7413 37.001 32.0352C36.8835 31.7119 36.7953 31.6237 36.6777 31.418C37.9121 31.6237 39.264 32.6523 39.1759 34.1218" fill="#ED1C24"/>
<path d="M37.3834 31.3587C37.1188 31.5938 36.8543 31.7407 36.7074 32.064C36.8837 32.0346 37.0895 31.9759 37.2658 31.9465C37.1776 31.7114 37.0601 31.535 36.9425 31.3293C36.7956 31.4175 36.6486 31.4762 36.4723 31.5644C37.736 31.7995 38.9116 32.7988 38.8528 34.1507C38.8528 34.3858 39.4113 34.2389 39.4113 34.0625C39.47 32.5637 38.2063 31.535 36.8249 31.2705C36.7368 31.2705 36.2665 31.3293 36.3547 31.5056C36.4723 31.7114 36.5898 31.9171 36.678 32.1228C36.7662 32.3285 37.1776 32.1522 37.2364 32.0053C37.354 31.7407 37.5891 31.6232 37.7948 31.4468C38.0887 31.2411 37.5009 31.2705 37.3834 31.3587Z" fill="#F15A29"/>
<path d="M34.7969 32.9756C35.7373 33.9161 36.766 34.739 38.0004 35.268L34.7969 32.9756Z" fill="#ED1C24"/>
<path d="M34.5321 33.0633C35.4726 34.0038 36.5013 34.7973 37.7356 35.3557C37.8826 35.4145 38.3234 35.1793 38.2646 35.1793C37.0303 34.6503 36.0016 33.8274 35.0612 32.8869C34.973 32.7694 34.4734 32.9751 34.5321 33.0633Z" fill="#F15A29"/>
<path d="M34.1797 32.6523C34.1797 33.4753 34.7087 34.0924 35.2083 34.739L34.1797 32.6523Z" fill="#ED1C24"/>
<path d="M33.9151 32.7407C33.9445 33.593 34.4441 34.2102 34.9732 34.8568C35.0907 35.0037 35.6197 34.798 35.5022 34.651C35.0026 34.0338 34.5029 33.446 34.4735 32.6231C34.4735 32.4174 33.8857 32.535 33.9151 32.7407Z" fill="#F15A29"/>
<path d="M30.9766 33.2695C30.9766 35.4444 32.2109 38.1482 34.2976 38.9712L30.9766 33.2695Z" fill="#ED1C24"/>
<path d="M30.6826 33.2986C30.7414 35.6204 31.8582 38.1186 34.0624 39.1178C34.2388 39.206 34.7678 38.9415 34.5033 38.8239C32.3872 37.8834 31.2998 35.4735 31.241 33.2398C31.241 32.9753 30.6826 33.0929 30.6826 33.2986Z" fill="#F15A29"/>
<path d="M30.8601 34.3271C30.6543 36.6196 32.4177 40.3521 34.9158 40.8517L30.8601 34.3271Z" fill="#ED1C24"/>
<path d="M30.5952 34.3272C30.4482 36.9429 32.0647 40.3227 34.7685 41.0281C35.0036 41.0868 35.4445 40.7342 35.0918 40.646C32.5643 39.9994 31.036 36.7371 31.183 34.2684C31.183 34.0039 30.5952 34.0921 30.5952 34.3272Z" fill="#F15A29"/>
<path d="M30.5645 35.9727C32.3278 38.2651 34.6202 40.1166 37.5005 40.8514L30.5645 35.9727Z" fill="#ED1C24"/>
<path d="M30.3001 36.0906C32.1223 38.4124 34.3853 40.2051 37.2655 40.9693C37.4125 40.9987 37.9415 40.7635 37.7358 40.7048C34.8849 39.9406 32.6513 38.1479 30.8292 35.8554C30.7116 35.7379 30.1826 35.9142 30.3001 36.0906Z" fill="#F15A29"/>
<path d="M34.21 32.6524C34.5332 32.7112 34.9447 32.77 35.0329 33.0639C34.7684 33.0933 34.7096 32.8288 34.8859 32.623C35.121 33.0639 34.4745 33.2402 34.4451 32.8288C34.7684 32.8288 35.0623 33.0933 35.0623 33.3872C34.8271 33.2696 34.592 33.0639 34.5039 32.7994C34.8859 32.77 35.268 33.1227 35.4737 33.4166C35.121 33.5635 34.6802 33.3578 34.4157 33.1521C34.8271 33.0345 35.5619 33.0345 35.7676 33.4166C35.5031 33.5635 34.7684 33.299 34.9153 32.9463C35.0623 32.4761 35.7088 33.0933 35.6501 33.4166C35.3856 33.3872 35.0623 33.1815 35.121 32.8876C35.2974 33.0051 35.3856 33.1521 35.3856 33.3578C35.3268 33.2402 35.268 33.2108 35.2092 33.0933C36.1203 33.3284 37.1489 34.6216 37.6486 35.3857C37.678 34.9448 37.4722 34.4746 37.3253 34.0631C37.2665 34.9742 37.8837 36.0617 38.4715 36.6788C38.2364 35.8265 37.678 34.9155 37.2371 34.1513C37.4135 34.9155 37.6486 35.709 38.0012 36.4437C37.6192 35.6796 36.6493 34.6803 36.5905 33.8574C36.7963 34.0044 36.9138 34.4746 36.9726 34.7685C36.855 34.504 36.7669 34.1807 36.5905 33.9456C36.6493 34.1807 36.8257 34.3864 37.0314 34.504C37.1489 34.4746 37.0902 34.3864 37.1489 34.3277" fill="#ED1C24"/>
<path d="M34.0333 32.7991C34.2978 32.8285 34.533 32.946 34.7681 33.1518C34.915 33.093 35.062 33.0048 35.2383 32.946C35.2089 32.8579 35.2089 32.7403 35.1795 32.6521C35.0032 32.6815 34.8269 32.7109 34.6211 32.7403C34.6505 32.7697 34.7093 32.7697 34.7387 32.7991C34.5917 32.8579 34.4448 32.946 34.2685 33.0048C34.5624 33.0342 34.7387 33.2105 34.7975 33.5044C34.9738 33.4457 35.1502 33.3575 35.2971 33.2987C35.062 33.1812 34.8856 33.0048 34.7975 32.7697C34.6505 32.8285 34.5036 32.9166 34.3272 32.9754C34.7681 33.0048 34.9738 33.2399 35.2089 33.5632C35.2971 33.4751 35.4147 33.3869 35.5028 33.3281C35.1795 33.3869 34.8856 33.2987 34.6505 33.093C34.5624 33.1812 34.4448 33.2693 34.3566 33.3281C34.7681 33.2399 35.2089 33.2105 35.4734 33.5632C35.5616 33.4751 35.6204 33.4163 35.7086 33.3281C35.4441 33.3281 35.2089 33.2399 35.062 33.0048C35.2383 33.1224 35.3265 33.3281 35.3265 33.5338C35.5028 33.4751 35.6792 33.3869 35.8261 33.3281C35.5322 33.2987 35.3853 33.1518 35.3559 32.8579C35.1795 32.9166 35.0032 32.9754 34.7975 33.0342C34.9738 33.1518 35.062 33.2987 35.062 33.4751C35.2383 33.4163 35.4147 33.3575 35.6204 33.2987C35.5616 33.2105 35.5322 33.1224 35.4734 33.0636C35.2971 33.1224 35.1208 33.2105 34.9738 33.2693C36.0025 33.622 36.796 34.6506 37.3838 35.5323C37.4719 35.6793 37.9422 35.5323 37.9422 35.356C37.9422 34.8858 37.7952 34.4743 37.6189 34.0335C37.5601 33.8571 37.0605 34.0041 37.0605 34.1804C37.0311 35.1797 37.5601 36.0907 38.2067 36.8255C38.2949 36.9431 38.8239 36.8255 38.7651 36.6492C38.4712 35.7381 38.001 34.9445 37.5307 34.1216C37.4426 33.9747 36.9135 34.0922 36.9723 34.2686C37.1487 35.0621 37.3838 35.8262 37.7365 36.561C37.9128 36.5022 38.1185 36.4728 38.2949 36.414C37.8246 35.5617 37.0311 34.827 36.8842 33.8277C36.7078 33.8865 36.5315 33.9453 36.3257 34.0041C36.5609 34.2392 36.6196 34.5625 36.6784 34.8858C36.8548 34.827 37.0605 34.7976 37.2368 34.7388C37.1193 34.4449 37.0311 34.1804 36.8548 33.9159C36.7666 33.769 36.2082 33.9159 36.2964 34.0628C36.4139 34.3274 36.5021 34.4743 36.7666 34.6506C36.8842 34.7388 37.1487 34.68 37.2662 34.5919C37.3544 34.5037 37.3838 34.4743 37.4132 34.3567C37.472 34.1804 36.8842 34.2686 36.8548 34.4449C36.8254 34.4743 36.8254 34.5037 36.796 34.5331C36.9723 34.5037 37.1193 34.4743 37.2956 34.4743C37.0899 34.3567 36.9429 34.1804 36.8548 33.9453C36.6784 34.0041 36.4727 34.0335 36.2964 34.0922C36.4727 34.3567 36.5609 34.6213 36.6784 34.9152C36.7372 35.0915 37.2956 34.9445 37.2368 34.7682C37.1487 34.4155 37.0899 34.0922 36.8254 33.8277C36.7078 33.7102 36.2376 33.8277 36.267 34.0041C36.4139 35.0033 37.2074 35.7381 37.6777 36.5904C37.7658 36.7667 38.3243 36.5904 38.2361 36.4434C37.9128 35.7087 37.6777 34.9445 37.472 34.151C37.2956 34.2098 37.0899 34.2392 36.9135 34.298C37.3838 35.1209 37.8834 35.9144 38.1479 36.8255C38.3243 36.7667 38.5006 36.7079 38.7063 36.6492C38.0597 35.9438 37.5601 35.0327 37.5895 34.0628C37.4132 34.1216 37.2074 34.151 37.0311 34.2098C37.1781 34.6506 37.325 35.0621 37.3544 35.5323C37.5307 35.4736 37.7071 35.4148 37.9128 35.356C37.2956 34.4449 36.5021 33.4163 35.4147 33.0636C35.3265 33.0342 34.7975 33.093 34.915 33.2693C34.9738 33.3869 35.0326 33.4751 35.1208 33.5632C35.2089 33.6808 35.7086 33.5632 35.6792 33.3869C35.6498 33.1224 35.5616 33.0342 35.3853 32.8579C35.2677 32.7403 34.8269 32.8579 34.8269 33.0342C34.8563 33.3869 35.0914 33.5044 35.4147 33.5926C35.5616 33.622 35.9437 33.5926 35.9143 33.3869C35.8849 32.946 35.062 32.2407 34.7093 32.8579C34.3272 33.5338 35.2971 33.7396 35.7967 33.5926C35.8849 33.5632 36.12 33.4751 36.0318 33.3575C35.6792 32.8873 34.9738 32.946 34.4742 33.0342C34.4448 33.0342 34.004 33.1812 34.1803 33.2693C34.5917 33.5338 34.9738 33.6808 35.4734 33.5926C35.5616 33.5632 35.8849 33.4751 35.7673 33.3575C35.4734 32.9754 35.1795 32.7403 34.7093 32.7109C34.6211 32.7109 34.1803 32.7697 34.2391 32.9166C34.3566 33.2399 34.5624 33.3869 34.8563 33.5632C34.9738 33.622 35.4147 33.5338 35.3559 33.3575C35.2383 32.9754 35.0032 32.8285 34.6211 32.7403C34.533 32.7109 34.0921 32.7991 34.1509 32.946C34.3566 33.5338 35.3559 33.2105 35.1795 32.5934C35.1208 32.417 34.6799 32.564 34.6211 32.6815C34.4448 33.0048 34.4742 33.2105 34.8563 33.2693C34.915 33.2693 35.4147 33.2105 35.3265 33.0636C35.1208 32.7109 34.7975 32.6521 34.386 32.5934C34.2391 32.4758 33.7394 32.7403 34.0333 32.7991Z" fill="#F15A29"/>
<path d="M33.9442 30.507C34.0911 30.125 34.5614 29.7723 34.9728 29.9486C34.8259 30.3013 34.2381 30.3307 33.9148 30.2719C34.6496 29.3314 34.9434 31.5063 33.9736 30.8303C33.2094 30.3013 34.6789 29.3314 35.1786 29.7723C34.7083 30.2425 33.6797 30.4776 33.0625 30.8009C33.5033 29.8604 34.5614 29.5665 35.4431 29.2139C34.8259 29.6841 34.4144 30.2425 34.0324 30.9479C34.003 30.7127 34.0618 30.4776 34.1793 30.2425C34.2969 30.4482 34.3557 30.654 34.385 30.8597" fill="#ED1C24"/>
<path d="M34.2094 30.5651C34.2976 30.3594 34.5033 30.0949 34.7972 30.1831C34.7678 30.0949 34.709 30.0361 34.6796 29.948C34.5621 30.1537 34.18 30.1243 33.9743 30.0949C34.0331 30.2125 34.0624 30.3006 34.1212 30.4182C34.2388 30.2712 34.2094 30.3594 34.1506 30.3006C34.2094 30.3594 34.2094 30.4182 34.2388 30.477C34.2682 30.5357 34.2682 30.6239 34.2682 30.6827C34.2682 30.859 34.2094 30.7415 34.327 30.7709C33.5922 30.5651 34.5327 29.6834 34.9441 29.948C34.9441 29.8304 34.9735 29.7422 34.9735 29.6247C34.4151 30.1537 33.5922 30.2712 32.9162 30.6239C33.0632 30.6827 33.1808 30.7709 33.3277 30.8296C33.7685 29.9773 34.7384 29.7128 35.5613 29.3895C35.4438 29.272 35.3556 29.1838 35.238 29.0663C34.5915 29.5659 34.1212 30.1831 33.7392 30.8884C33.9155 30.8884 34.1212 30.8884 34.2976 30.9178C34.2976 30.6827 34.327 30.5064 34.4151 30.2712C34.2388 30.2712 34.0331 30.3006 33.8567 30.3006C33.9449 30.5064 34.0037 30.7121 34.0624 30.9178C34.1212 31.1823 34.6796 31.0354 34.6209 30.7709C34.5621 30.5651 34.5033 30.3594 34.4151 30.1537C34.327 29.9186 33.9449 29.9773 33.8567 30.1831C33.7392 30.4182 33.6804 30.6533 33.7098 30.9178C33.7392 31.2117 34.1506 31.1235 34.2682 30.9472C34.6209 30.33 35.0323 29.7716 35.5907 29.3308C35.8846 29.0956 35.5025 28.9193 35.2674 29.0075C34.2682 29.3895 33.2689 29.7422 32.7399 30.7415C32.6223 30.9766 33.0044 31.0354 33.1514 30.9472C33.8567 30.5651 34.709 30.4182 35.3262 29.8598C35.4144 29.7716 35.4732 29.6247 35.3556 29.5365C34.7972 29.1544 34.0331 29.5365 33.6216 29.9773C33.1808 30.4476 33.5922 31.1529 34.2094 31.1235C34.7384 31.1235 34.8854 30.5945 34.7678 30.1537C34.5915 29.5365 33.9449 29.7422 33.6216 30.0949C33.504 30.2419 33.6216 30.3888 33.7685 30.4182C34.2976 30.5064 34.9148 30.4476 35.2087 29.9186C35.2674 29.8304 35.1793 29.7128 35.0911 29.6834C34.4739 29.5071 33.8861 29.8304 33.6216 30.3888C33.5334 30.7709 34.1212 30.8003 34.2094 30.5651Z" fill="#F15A29"/>
<path d="M31.3291 36.1202C31.7699 37.6485 32.9161 38.7065 33.9154 39.8527C32.9749 39.5882 33.2394 38.1187 32.3871 37.913C32.0344 38.8241 33.4158 40.2936 34.2387 40.4699C33.9742 40.2054 33.6509 39.9997 33.4158 39.6764C33.6509 40.1172 34.0623 40.4405 34.562 40.5287C33.5039 39.7352 32.7398 38.971 31.9463 37.9424C31.9169 38.1187 31.9463 38.2951 32.005 38.4714C31.9757 37.913 31.5348 37.3546 31.3585 36.8256C31.2409 36.3847 31.1527 35.9145 31.1234 35.4736C31.0646 35.6794 31.094 35.8851 31.1821 36.0614" fill="#ED1C24"/>
<path d="M31.0349 36.1793C31.5346 37.6782 32.622 38.795 33.6506 39.9706C33.7976 39.8531 33.9445 39.7649 34.0621 39.6473C33.2098 39.2947 33.4449 38.0603 32.5338 37.7076C32.3575 37.6488 32.1224 37.737 32.093 37.9133C31.7991 39.0595 33.0628 40.3233 34.0915 40.6466C34.209 40.676 34.7087 40.529 34.5029 40.3233C34.209 40.0588 33.9151 39.8237 33.68 39.5298C33.5331 39.3534 33.0041 39.5298 33.151 39.7649C33.4743 40.2645 33.827 40.529 34.3854 40.7054C34.5617 40.7641 35.032 40.5584 34.7674 40.3527C33.7976 39.6179 32.9453 38.7656 32.1811 37.7958C32.0636 37.6488 31.6227 37.737 31.6227 37.9427C31.6227 38.2366 31.6227 38.2072 31.6815 38.5011C31.7403 38.7656 32.2987 38.6187 32.2399 38.3542C32.1517 37.8546 31.9166 37.4431 31.6815 36.9729C31.4464 36.4732 31.3876 35.8854 31.3288 35.3564C31.2994 35.1213 30.7704 35.2389 30.7704 35.4446C30.741 35.8267 30.7116 35.7385 30.8292 36.0912C30.9174 36.3557 31.4758 36.1793 31.3876 35.9442C31.3582 35.7679 31.3582 35.5915 31.3288 35.4152C31.1525 35.4446 30.9468 35.474 30.7704 35.5034C30.8292 36.0618 30.9174 36.6202 31.1231 37.1198C31.2994 37.59 31.5933 38.0015 31.6815 38.5011C31.8579 38.4423 32.0636 38.413 32.2399 38.3542C32.2105 38.2072 32.2105 38.0309 32.1811 37.8839C32.0048 37.9427 31.8285 37.9721 31.6227 38.0309C32.4163 39.0301 33.2686 39.8824 34.2972 40.6466C34.4148 40.529 34.5617 40.4115 34.6793 40.2939C34.1796 40.147 33.9151 39.9118 33.6212 39.5004C33.4449 39.5885 33.2686 39.6767 33.0922 39.7355C33.3567 40.0294 33.6212 40.2645 33.9151 40.529C34.0621 40.4115 34.209 40.3233 34.3266 40.2057C33.4449 39.9412 32.3281 38.795 32.5926 37.8252C32.4456 37.8839 32.2987 37.9721 32.1518 38.0309C32.9453 38.3542 32.7983 39.5886 33.68 39.9706C33.827 40.0294 34.2972 39.8531 34.0915 39.6473C33.0922 38.5011 32.0048 37.4431 31.5346 35.9736C31.5052 35.7679 30.9468 35.9442 31.0349 36.1793Z" fill="#F15A29"/>
<path d="M37.4709 31.0353C37.4415 31.2705 37.4709 31.5056 37.5297 31.7407C37.5591 31.5056 37.5003 31.2705 37.3827 31.006C37.3827 31.2705 37.3827 31.5937 37.0594 31.535C37.0888 31.1823 37.4709 30.9178 37.7648 30.7121C37.9411 31.1235 37.8236 31.6525 38.0293 32.064C37.7648 31.7113 36.648 30.7414 37.3827 30.3594C37.4121 30.7414 37.0007 31.1823 36.7949 31.4762C36.9419 31.2998 37.1182 31.1235 37.3239 31.2117" fill="#ED1C24"/>
<path d="M37.1778 31.0649C37.1484 31.3294 37.1778 31.5645 37.2365 31.7997C37.2953 32.0054 37.7949 31.8878 37.7949 31.6821C37.8243 31.4176 37.7656 31.1531 37.648 30.918C37.5598 30.7122 37.0896 30.8004 37.0896 31.0355C37.0896 31.0943 37.0896 31.1531 37.0896 31.2119C37.0896 31.3588 37.0308 31.3294 37.1778 31.3588C37.2365 31.4176 37.2953 31.4764 37.3541 31.5058C37.4129 31.1825 37.7068 31.0061 37.9419 30.8004C37.7949 30.8004 37.6186 30.771 37.4717 30.771C37.6186 31.2119 37.5598 31.6821 37.7362 32.123C37.9125 32.0642 38.0888 32.0054 38.2946 31.9172C38.0888 31.6527 37.0602 30.7416 37.5598 30.4477C37.4129 30.4183 37.2365 30.389 37.0896 30.3596C37.0896 30.771 36.7957 31.0649 36.5606 31.3588C36.3548 31.6527 36.8839 31.6527 37.0308 31.5058C37.0896 31.447 37.1484 31.3882 37.2071 31.3588C37.4717 31.3882 37.7949 31.0355 37.4129 30.9767C37.0602 30.918 36.7663 31.0943 36.5606 31.3588C36.7075 31.4176 36.8839 31.447 37.0308 31.5058C37.2953 31.1531 37.6774 30.771 37.6774 30.3008C37.6774 30.0657 37.3247 30.1538 37.2071 30.2126C36.3254 30.7416 37.4129 31.6527 37.7949 32.123C37.9125 32.2699 38.4415 32.1523 38.3533 31.9172C38.177 31.4764 38.2358 31.0061 38.0888 30.5653C38.0301 30.389 37.7362 30.4477 37.6186 30.5359C37.2953 30.8004 36.9132 31.0649 36.8251 31.5058C36.7957 31.6233 36.9132 31.6527 37.0014 31.6527C37.501 31.7115 37.7068 31.3588 37.7068 30.918C37.5304 30.9474 37.3247 30.9767 37.1484 31.0355C37.2365 31.2706 37.2953 31.4764 37.2953 31.7115C37.4717 31.6821 37.6774 31.6527 37.8537 31.5939C37.7949 31.3882 37.7656 31.1825 37.7949 30.9474C37.7656 30.7416 37.2071 30.8298 37.1778 31.0649Z" fill="#F15A29"/>
<path d="M38.5596 31.8877C38.7653 32.2404 39.0886 32.5343 39.118 32.9457C39.1474 32.5931 38.971 32.2992 38.7947 32.0053C39.5588 32.7988 40.176 33.5335 40.4993 34.5916" fill="#ED1C24"/>
<path d="M38.3242 32.0348C38.53 32.3581 38.7945 32.652 38.8533 33.0635C38.8827 33.2986 39.4117 33.181 39.4117 32.9753C39.4117 32.5932 39.2647 32.2699 39.059 31.9466C38.8827 32.0348 38.7063 32.123 38.53 32.2111C39.2353 32.9753 39.8819 33.7394 40.2052 34.7387C40.2934 35.0032 40.8518 34.8562 40.7636 34.5917C40.4403 33.5337 39.7937 32.7402 39.059 31.9466C38.8827 31.7703 38.383 31.9172 38.53 32.2111C38.7063 32.4757 38.8239 32.7108 38.8239 33.0341C39.0002 33.0047 39.2059 32.9753 39.3823 32.9459C39.3235 32.505 39.0296 32.1818 38.7945 31.8291C38.7063 31.5646 38.1479 31.7703 38.3242 32.0348Z" fill="#F15A29"/>
<path d="M37.7074 31.006C37.5311 30.8003 37.3547 30.5652 37.531 30.3301L37.7074 31.006Z" fill="#ED1C24"/>
<path d="M37.9716 30.889C37.8541 30.742 37.6777 30.5657 37.7953 30.36C37.8835 30.2424 37.7365 30.1542 37.6189 30.1248C37.472 30.0954 37.325 30.1836 37.2369 30.3012C37.0605 30.5951 37.2075 30.889 37.4132 31.1535C37.6189 31.3004 38.148 31.0947 37.9716 30.889Z" fill="#F15A29"/>
<path d="M35.6787 29.0665C35.8844 29.0077 36.0902 28.949 36.3253 29.0077L35.6787 29.0665Z" fill="#ED1C24"/>
<path d="M35.7085 29.1546C35.8555 29.0958 36.0024 29.0958 36.1494 29.0958C36.2669 29.1252 36.4433 29.0665 36.5608 28.9783C36.649 28.9195 36.6196 28.8607 36.5315 28.8313C36.2376 28.8019 35.9437 28.8313 35.6791 28.9195C35.6204 28.9489 35.3853 29.0077 35.4146 29.0958C35.4146 29.2428 35.6498 29.184 35.7085 29.1546Z" fill="#F15A29"/>
<path d="M43.4086 37.1486C43.1441 37.5013 42.8796 37.9128 42.6738 38.3242C42.8208 38.0009 42.9971 37.707 43.2028 37.4131C43.1735 37.5307 43.1441 37.6776 43.0853 37.7952C43.4086 37.6776 43.6437 37.4131 43.8788 37.2074C43.7025 37.5307 43.438 37.7658 43.1735 38.0009C43.5849 37.7952 43.9376 37.4719 44.1727 37.0898" fill="#ED1C24"/>
<path d="M43.1439 37.1489C42.85 37.5309 42.6149 37.9424 42.4092 38.3539C42.5855 38.3245 42.7912 38.2951 42.9676 38.2657C43.1145 37.9718 43.2615 37.6779 43.4672 37.4134C43.2909 37.4428 43.1145 37.4428 42.9382 37.4722C42.9088 37.5897 42.8794 37.7367 42.8206 37.8542C42.7619 38.0012 43.1439 37.913 43.2027 37.913C43.5554 37.7661 43.8199 37.5309 44.1138 37.2664C43.9375 37.2664 43.7905 37.2664 43.6142 37.2958C43.4378 37.5897 43.1733 37.8248 42.9382 38.06C42.8794 38.1187 42.9676 38.1775 43.0264 38.1775C43.1439 38.1775 43.2615 38.1481 43.379 38.0894C43.8199 37.8542 44.202 37.5309 44.4665 37.1195C44.584 36.9432 44.0256 37.0019 43.9374 37.1489C43.7023 37.5016 43.4084 37.7661 43.0264 37.9718C43.1733 38.0012 43.3203 38.0012 43.4672 38.0306C43.7317 37.7661 43.9962 37.5309 44.1726 37.2077C44.2607 37.0607 43.7317 37.1783 43.6729 37.237C43.4672 37.4134 43.2615 37.6485 42.997 37.7661C43.1145 37.7955 43.2615 37.7955 43.379 37.8248C43.4084 37.7073 43.4378 37.5603 43.4966 37.4428C43.5554 37.2664 43.0264 37.4134 42.9676 37.5016C42.7619 37.7955 42.5855 38.1187 42.4386 38.442C42.3798 38.589 42.9382 38.5008 42.997 38.3539C43.2027 37.9424 43.4378 37.5603 43.7023 37.2077C43.8199 36.9725 43.2321 37.0313 43.1439 37.1489Z" fill="#F15A29"/>
<path d="M44.261 37.002C44.0553 37.4134 43.9083 37.9718 43.5557 38.2657L44.261 37.002Z" fill="#ED1C24"/>
<path d="M43.9966 36.9723C43.7909 37.3838 43.6734 37.8834 43.3501 38.2067C43.2619 38.2949 43.3207 38.4418 43.4382 38.4712C43.5852 38.53 43.7321 38.4712 43.8497 38.3537C44.2318 38.001 44.3493 37.472 44.5844 37.0311C44.6726 36.7372 44.1142 36.7372 43.9966 36.9723Z" fill="#F15A29"/>
<path d="M44.2606 37.501C44.0254 37.8243 43.8785 38.1476 43.7021 38.5002L44.2606 37.501Z" fill="#ED1C24"/>
<path d="M44.0253 37.4132C43.7902 37.7365 43.6138 38.1185 43.4375 38.4712C43.2905 38.7651 43.8783 38.7651 43.9959 38.53C44.1428 38.2067 44.2898 37.8834 44.5249 37.5895C44.7306 37.2956 44.2016 37.178 44.0253 37.4132Z" fill="#F15A29"/>
<path d="M44.3198 36.9434C44.0847 37.7369 44.1141 38.7068 43.5557 39.3827L44.3198 36.9434Z" fill="#ED1C24"/>
<path d="M44.0258 36.9132C43.7907 37.7067 43.8201 38.6178 43.291 39.3231C43.0853 39.617 43.6143 39.7346 43.7613 39.4995C44.3197 38.7647 44.3197 37.8536 44.5548 37.0013C44.6724 36.6486 44.114 36.6486 44.0258 36.9132Z" fill="#F15A29"/>
<path d="M43.5256 37.8246C43.5256 38.0303 43.4962 38.2067 43.3786 38.383C43.4962 38.236 43.5256 38.0303 43.5844 37.9128C43.3198 37.854 43.0553 38.0303 42.8496 38.236C43.0847 38.0597 43.2905 37.8834 43.4668 37.707" fill="#ED1C24"/>
<path d="M43.232 37.9132C43.232 38.0896 43.2026 38.2365 43.1144 38.3835C43.0556 38.501 43.1732 38.5304 43.2613 38.5304C43.3789 38.5304 43.5552 38.501 43.6434 38.3835C43.761 38.2365 43.7904 38.0308 43.8785 37.8545C43.9079 37.7957 43.8197 37.7663 43.761 37.7369C43.3201 37.6487 42.9381 37.8545 42.6442 38.1484C42.556 38.2365 42.556 38.3247 42.7029 38.3247C42.8499 38.3541 42.9968 38.2953 43.1144 38.2071C43.3201 38.0602 43.5552 37.8839 43.7316 37.6781C43.8197 37.59 43.8198 37.5018 43.6728 37.5018C43.5552 37.4724 43.3495 37.5312 43.2613 37.6193C43.0556 37.7957 42.8499 37.972 42.6442 38.1484C42.7911 38.1778 42.9381 38.2071 43.085 38.2365C43.1438 38.1778 43.2026 38.119 43.2907 38.0602C43.3495 38.0014 43.3201 38.0308 43.4083 38.0308C43.3789 38.0014 43.3495 37.972 43.2907 37.9132C43.232 38.0602 43.2026 38.2365 43.1144 38.3541C43.2907 38.3541 43.4671 38.3541 43.6434 38.3541C43.761 38.1484 43.7904 37.9426 43.7904 37.7369C43.7904 37.59 43.232 37.7075 43.232 37.9132Z" fill="#F15A29"/>
<path d="M44.3477 37.208C44.2889 37.5607 44.1714 37.8546 44.0244 38.1779L44.3477 37.208Z" fill="#ED1C24"/>
<path d="M44.0542 37.2662C43.9954 37.5895 43.8778 37.9128 43.7309 38.2361C43.6721 38.3537 44.2305 38.2949 44.2893 38.1479C44.4362 37.8246 44.5244 37.5013 44.6126 37.1781C44.642 37.0311 44.0836 37.1193 44.0542 37.2662Z" fill="#F15A29"/>
<path d="M42.9385 38.4128C42.9679 38.354 42.9973 38.2658 43.056 38.207L42.9385 38.4128Z" fill="#ED1C24"/>
<path d="M43.2029 38.471C43.2323 38.4122 43.2617 38.324 43.3205 38.2652C43.3793 38.1477 43.2617 38.0301 43.1442 38.0301C42.9972 38.0007 42.8503 38.0889 42.7621 38.2065C42.7327 38.2652 42.7033 38.3534 42.6445 38.4122C42.5858 38.5297 42.7033 38.6473 42.8209 38.6473C42.9678 38.6473 43.1442 38.5885 43.2029 38.471Z" fill="#F15A29"/>
<path d="M35.9424 41.9105C36.6477 41.9105 37.2943 41.9105 37.9409 41.793L35.9424 41.9105Z" fill="#ED1C24"/>
<path d="M35.8251 42.0573C36.5305 42.0573 37.2065 42.0573 37.9118 41.9397C38.1763 41.9103 38.3821 41.587 38 41.6458C37.3534 41.734 36.7068 41.734 36.0603 41.734C35.8839 41.7634 35.4431 42.0573 35.8251 42.0573Z" fill="#F15A29"/>
<path d="M36.2666 41.6163C36.6487 41.6163 37.0307 41.6163 37.4128 41.5869L36.2666 41.6163Z" fill="#ED1C24"/>
<path d="M36.1488 41.7629C36.5603 41.7629 36.9717 41.7629 37.3538 41.7335C37.4714 41.7335 37.6477 41.6454 37.6771 41.5278C37.7065 41.3809 37.5008 41.3809 37.4126 41.3809C37.0599 41.4102 36.7072 41.4102 36.3545 41.4102C36.237 41.4102 36.0607 41.4396 35.9725 41.5572C35.9137 41.7041 36.0607 41.7629 36.1488 41.7629Z" fill="#F15A29"/>
<path d="M36.2373 41.7336C36.6782 41.7336 37.1484 41.7336 37.5892 41.6748L36.2373 41.7336Z" fill="#ED1C24"/>
<path d="M36.1194 41.9103C36.5897 41.9103 37.0599 41.9103 37.5302 41.8515C37.6477 41.8221 37.8241 41.7927 37.8534 41.6752C37.8828 41.5576 37.6771 41.5576 37.6183 41.5576C37.2069 41.6164 36.766 41.6164 36.3546 41.6164C36.237 41.6164 36.0607 41.6458 35.9725 41.7633C35.8843 41.8515 36.0313 41.9103 36.1194 41.9103Z" fill="#F15A29"/>
<path d="M36.5605 41.7048C37.3835 41.7048 38.2064 41.646 39.0587 41.499L36.5605 41.7048Z" fill="#ED1C24"/>
<path d="M36.5604 41.9391C37.3833 41.9391 38.2356 41.8509 39.0586 41.7333C39.3818 41.6746 39.4994 41.2337 39.088 41.2925C38.265 41.4101 37.4421 41.4982 36.5898 41.4982C36.2665 41.4982 36.149 41.9391 36.5604 41.9391Z" fill="#F15A29"/>
<path d="M39.9102 43.2323C40.498 42.8503 41.0564 42.4682 41.556 42.0273L39.9102 43.2323Z" fill="#ED1C24"/>
<path d="M40.087 43.3208C40.6748 42.9387 41.2626 42.5273 41.7916 42.0864C41.8797 41.9983 41.8504 41.9101 41.7328 41.8807C41.5859 41.8513 41.4389 41.9101 41.3213 41.9982C40.8217 42.4391 40.2633 42.8212 39.7049 43.1738C39.411 43.3502 39.9106 43.4384 40.087 43.3208Z" fill="#F15A29"/>
<path d="M40.5283 42.9976C41.2337 42.5862 41.8803 42.1453 42.4974 41.5869L40.5283 42.9976Z" fill="#F15A29"/>
<path d="M40.7045 43.0558C41.4099 42.615 42.0859 42.1447 42.7324 41.6157C42.9676 41.41 42.4092 41.4394 42.2916 41.5569C41.7038 42.086 41.0572 42.5268 40.3813 42.9383C40.058 43.1146 40.5576 43.144 40.7045 43.0558Z" fill="#ED1C24"/>
<path d="M43.7322 31.9177C44.1436 31.1242 42.1157 29.6253 41.6455 29.2139L43.7322 31.9177Z" fill="#ED1C24"/>
<path d="M43.9967 31.8886C44.2318 31.3595 43.6734 30.7718 43.3501 30.4191C42.9093 29.9488 42.3803 29.5668 41.91 29.1259C41.7631 29.0084 41.2635 29.2141 41.381 29.3317C41.7925 29.7137 42.2627 30.0664 42.6448 30.4485C42.9975 30.8011 43.6734 31.4183 43.4383 31.9473C43.3795 32.1237 43.9379 32.0649 43.9967 31.8886Z" fill="#F15A29"/>
<path d="M30.3881 30.7422C29.4476 32.917 29.5651 35.4152 30.0648 37.6488L30.3881 30.7422Z" fill="#ED1C24"/>
<path d="M30.0946 30.8004C29.2129 33.0634 29.2717 35.4146 29.7713 37.7364C29.8007 37.9127 30.3885 37.7658 30.3297 37.5894C29.8301 35.2676 29.7713 32.9458 30.653 30.7122C30.7412 30.5652 30.1828 30.624 30.0946 30.8004Z" fill="#F15A29"/>
<path d="M33.3271 28.4202C34.3264 27.7737 35.6783 27.8324 36.8539 27.8324L33.3271 28.4202Z" fill="#ED1C24"/>
<path d="M33.5332 28.4204C34.4736 27.862 35.5904 27.9501 36.6485 27.9501C36.766 27.9501 37.2951 27.715 37.0012 27.715C35.6492 27.715 34.2679 27.6856 33.0629 28.4204C32.8572 28.5379 33.445 28.4791 33.5332 28.4204Z" fill="#F15A29"/>
<path d="M30.9475 24.9518C30.8005 20.8079 35.1796 18.3391 37.2957 15.2826C39.5587 12.0203 40.2346 8.05268 38.53 4.40834C38.3537 4.05566 37.2663 4.40834 37.3838 4.70224C39.3236 8.84621 38.0598 12.9902 35.3853 16.4288C33.2399 19.2208 29.6543 21.2781 29.8013 25.2163C29.8306 25.5984 30.9768 25.3633 30.9475 24.9518Z" fill="#FBB040"/>
<path d="M46.8172 27.7732C48.8745 27.1854 50.9024 28.7137 52.4307 29.9186C53.8708 31.0355 55.2521 32.1817 56.7216 33.2691C59.4549 35.297 62.482 37.1192 65.9206 37.5012C66.3615 37.56 67.1256 36.9428 66.3615 36.8546C62.0706 36.3844 58.4262 33.3866 55.1639 30.8003C52.754 28.89 49.9913 26.2449 46.6703 27.1854C45.9649 27.3911 46.1413 27.9495 46.8172 27.7732Z" fill="#FBB040"/>
<path d="M44.5257 45.0544C44.6139 49.1396 41.2634 51.3438 39.0592 54.3122C37.0019 57.1042 35.6794 60.4253 35.2385 63.8639C35.1797 64.4223 36.3259 64.246 36.3847 63.7757C36.8843 59.8081 38.6183 56.1638 41.1753 53.1072C43.3207 50.5503 45.7307 48.5518 45.6719 44.9368C45.6719 44.3784 44.5257 44.5842 44.5257 45.0544Z" fill="#FBB040"/>
<path d="M29.0074 27.3028C22.0126 27.0383 18.6622 34.4152 12.4022 35.9728C11.6968 36.1492 11.8731 36.7958 12.5785 36.6194C18.5152 35.1205 22.1596 27.7437 28.5666 28.0082C29.0662 28.0082 29.7715 27.3322 29.0074 27.3028Z" fill="#FBB040"/>
<path d="M36.355 6.34789C35.7378 5.78948 34.621 6.0246 34.0919 6.64179C33.9156 6.84752 33.8568 7.1708 33.9156 7.43531C34.0038 7.78799 34.2977 7.96433 34.621 8.08189C34.8561 8.17006 35.2087 8.02311 35.4145 7.93494C35.532 7.87616 35.7965 7.72921 35.5614 7.67043C35.1794 7.55287 34.9442 7.1708 35.0618 6.75935C35.0912 6.6124 35.2087 6.43606 35.2969 6.40667C35.15 6.49484 35.003 6.52423 34.8561 6.52423L34.9442 6.55362C35.0618 6.6124 35.1794 6.70057 35.2675 6.75935C35.4145 6.87691 35.8553 6.72996 36.0023 6.70057C36.0611 6.6124 36.5019 6.46545 36.355 6.34789Z" fill="#FBB040"/>
<path d="M7.22931 34.2984C6.78847 34.3572 6.64152 33.9163 6.64152 33.5636C6.64152 33.2991 6.81786 32.5938 7.17053 32.5644C7.43504 32.5644 7.75833 32.4762 7.90528 32.2411C8.05223 32.0354 7.78772 31.8884 7.61138 31.9178C6.61213 31.9472 5.70104 32.5056 5.5247 33.5342C5.34836 34.5335 6.14189 35.0625 7.08236 34.9156C7.28809 34.8862 7.67016 34.7686 7.72894 34.5335C7.78772 34.269 7.37626 34.269 7.22931 34.2984Z" fill="#FBB040"/>
<path d="M69.6533 35.3855C70.7113 35.2091 71.5636 34.298 71.0934 33.2106C70.6232 32.1232 69.4182 31.7705 68.3895 32.2407C68.1544 32.3289 67.9781 32.6228 68.125 32.8579C68.3014 33.0931 68.654 33.0637 68.8892 32.9755C69.3594 32.7698 69.7709 33.1812 69.9766 33.5633C70.2705 34.0923 69.9472 34.4744 69.4182 34.5625C69.1831 34.5919 68.8892 34.8564 68.9773 35.1209C69.0655 35.4148 69.4182 35.4442 69.6533 35.3855Z" fill="#FBB040"/>
<path d="M38.5006 62.7476C38.5593 63.3941 38.7357 64.0995 39.2647 64.5109C39.7349 64.893 40.3815 64.8048 40.9399 64.6285C42.1155 64.217 42.3506 62.9533 41.6453 62.0422C41.4395 61.7483 40.3521 62.1304 40.5872 62.483C40.8224 62.8063 40.9693 63.1884 40.9105 63.5999C40.8811 63.7468 40.8224 63.8938 40.7342 64.0113C40.6754 64.1289 40.5578 64.217 40.4991 64.2464C40.5285 64.2464 40.7048 64.2464 40.5285 64.217C40.4109 64.1877 40.2933 64.0995 40.1758 64.0113C39.7643 63.6293 39.6761 62.9827 39.6174 62.483C39.6174 62.1304 38.4712 62.3655 38.5006 62.7476Z" fill="#FBB040"/>
<path d="M49.1391 43.3502C51.0788 44.614 53.9003 44.2613 56.0457 43.8205C58.8671 43.262 61.0126 41.3223 62.8054 39.2062C63.1287 38.8536 61.9825 38.9417 61.7474 39.2062C60.2779 40.9109 58.6614 42.4685 56.4866 43.1445C54.6938 43.7029 51.8136 43.9674 50.1971 42.9094C49.8739 42.7036 48.8452 43.1445 49.1391 43.3502Z" fill="#FBB040"/>
<path d="M29.037 46.5246C28.7725 48.4937 29.5073 50.3159 30.4183 52.0499C31.3294 53.8427 32.1523 55.6942 33.5924 57.1637C33.9451 57.5164 35.0325 57.0755 34.6211 56.6641C33.4749 55.5179 32.7401 54.1072 32.0348 52.6671C31.0355 50.6979 29.9187 48.6994 30.2126 46.407C30.2714 45.8486 29.0958 46.025 29.037 46.5246Z" fill="#FBB040"/>
<path d="M29.0953 27.8613C25.2746 27.8907 22.8352 30.3007 19.8081 32.2404C19.1615 32.6519 20.1314 32.887 20.5428 32.6519C23.1585 30.9766 25.3922 28.5961 28.6838 28.5667C29.1247 28.5667 29.8594 27.8613 29.0953 27.8613Z" fill="#FBB040"/>
<path d="M32.0636 24.6286C31.9754 20.8667 36.2663 19.0739 38.3236 16.517C38.3824 16.4582 37.4125 16.4582 37.2068 16.7227C35.1201 19.309 30.8292 21.0724 30.9174 24.9225C30.9174 25.0988 32.0636 24.9225 32.0636 24.6286Z" fill="#FBB040"/>
<path d="M46.8762 28.4496C49.1392 27.8912 51.6668 30.0366 53.342 31.3004C54.929 32.5054 56.3985 33.8573 58.0443 35.0035C58.3382 35.2092 59.3669 34.7684 59.1024 34.592C56.9569 33.0638 55.0466 31.271 52.9011 29.7721C51.079 28.5084 49.0217 27.4209 46.7587 27.9793C46.0827 28.1557 46.2002 28.5965 46.8762 28.4496Z" fill="#FBB040"/>
<path d="M33.2098 24.3059C33.2098 24.3059 32.0342 22.0135 35.6197 20.015C39.2053 18.0165 40.0282 16.4294 40.4691 14.6954C40.8805 12.9614 41.0275 12.1973 41.0275 12.1973C41.0275 12.1973 42.4088 15.2244 42.6733 18.6924C42.9378 22.1604 42.1149 23.3948 40.7336 24.012C39.3816 24.6292 35.1495 22.5719 33.2098 24.3059Z" fill="#FFDE17"/>
<path d="M25.9798 31.418C25.9798 31.418 23.7755 33.005 24.334 36.8845C24.8924 40.7639 25.921 42.1453 26.7439 42.6743C27.5668 43.2327 25.7741 43.7029 22.9526 41.9101C20.1312 40.1174 15.7815 38.1776 14.312 38.3246C12.8719 38.4715 14.3708 39.3532 17.8388 36.3849C21.2774 33.4165 25.9798 31.418 25.9798 31.418Z" fill="#FFDE17"/>
<path d="M31.7695 46.2013C31.7695 46.2013 34.0619 48.0529 36.5307 47.8471C39.0288 47.6414 42.6144 45.8486 42.6144 45.8486C42.6144 45.8486 41.38 48.8758 38.5292 50.698C35.7078 52.4907 34.5322 55.9587 35.3551 56.0175C36.178 56.0763 34.444 56.8404 33.7093 52.7846C32.9451 48.6701 31.7695 46.2013 31.7695 46.2013Z" fill="#FFDE17"/>
<path d="M48.1406 29.8896C48.1406 29.8896 50.0804 31.5355 49.5807 35.6794C49.1105 39.8234 49.5219 41.146 51.5205 41.4692C53.519 41.8219 57.3102 41.0578 59.0442 39.1181C60.7782 37.1783 61.8657 37.1783 61.8657 37.1783C61.8657 37.1783 57.9274 37.9425 56.1347 35.5913C54.3713 33.2695 48.1406 29.8896 48.1406 29.8896Z" fill="#FFDE17"/>
<path d="M34.0919 5.52539C33.6804 5.55478 33.2102 5.64295 32.9457 5.99563C32.7399 6.26014 32.8281 6.67159 32.9457 6.96549C33.2396 7.67085 33.9449 8.43498 34.7091 8.55254C35.6789 8.72888 36.3843 7.72963 36.0316 6.84793C35.8259 6.34831 35.3556 5.81929 34.8266 5.76051C34.2976 5.67234 33.7686 6.11319 33.8274 6.70098C33.8568 7.11244 34.2682 7.23 34.6209 7.20061C34.9148 7.17122 35.385 6.90671 35.0324 6.58342C34.8854 6.43648 34.3564 6.67159 34.5033 6.81854C34.5327 6.84793 34.5915 6.87732 34.5915 6.9361C34.5621 6.87732 34.7678 6.90671 34.6503 6.87732C34.4739 6.84793 34.3858 6.70098 34.3858 6.52465C34.3858 6.34831 34.4739 6.0838 34.5915 6.11319C34.8266 6.17197 35.0324 6.3777 35.1793 6.55403C35.5026 6.9361 35.6495 7.34756 35.5026 7.8178C35.4438 8.02353 35.2969 8.28804 35.0617 8.25865C34.4446 8.17048 33.8862 7.55329 33.6216 7.02427C33.3865 6.61281 33.2102 5.87807 33.8862 5.84868C34.0037 5.84868 34.18 5.81929 34.2682 5.70173C34.327 5.58417 34.2094 5.52539 34.0919 5.52539Z" fill="#FFDE17"/>
<path d="M6.90599 32.3588C6.23003 32.6821 6.0243 33.2993 6.37698 33.9752C6.70026 34.5924 7.37623 34.8863 8.0522 34.8275C9.22779 34.7688 10.2564 33.1817 8.9045 32.5057C8.28731 32.1825 7.58196 32.3294 7.11172 32.8584C6.81782 33.1817 6.5827 33.8871 7.11172 34.1222C7.55257 34.3279 8.14036 34.0928 8.22853 33.5932C8.28731 33.1229 7.93464 32.7703 7.49379 32.976C7.28806 33.0642 7.14111 33.2405 6.99416 33.4168C6.96477 33.4756 6.99416 33.5344 7.02355 33.5638C7.31745 33.7695 7.64074 33.8283 7.96403 33.8577C8.19914 33.8577 8.55182 33.5344 8.16975 33.505C7.90525 33.505 7.67013 33.4168 7.4644 33.2699C7.4644 33.3287 7.49379 33.3874 7.49379 33.4168C7.55257 33.3287 7.58196 33.2699 7.67013 33.2111C7.55257 33.3287 7.49379 33.1523 7.58196 33.2993C7.64074 33.3874 7.64074 33.5344 7.64074 33.6226C7.64074 33.6813 7.61135 33.7107 7.61135 33.7695C7.55257 33.8871 7.64074 33.8283 7.55257 33.7989C7.40562 33.7695 7.34684 33.5932 7.34684 33.4756C7.34684 33.1523 7.58196 32.829 7.84647 32.7115C8.19914 32.5351 8.72816 32.9172 8.9045 33.2405C9.22779 33.9165 8.43426 34.5924 7.81708 34.4749C7.11172 34.3573 6.14186 33.0935 7.11172 32.6233C7.49379 32.447 7.1705 32.2412 6.90599 32.3588Z" fill="#FFDE17"/>
<path d="M71.3579 32.0642C70.5349 30.7417 68.2425 30.6829 67.6253 32.2111C67.3608 32.8577 67.7135 33.6806 68.3013 34.0333C68.9185 34.386 69.712 34.386 70.3292 34.0039C70.7994 33.71 71.064 33.1516 70.9464 32.5932C70.7994 32.0054 70.1235 31.976 69.6239 32.0642C69.0948 32.1818 68.6246 32.6814 69.0654 33.181C69.4475 33.5925 70.0647 33.2104 70.2116 32.7989C70.2116 32.7696 70.1823 32.7108 70.1529 32.7108C69.6239 32.5344 69.1536 32.7402 68.9773 33.2398C68.9479 33.2692 69.0067 33.328 69.0361 33.328C69.2124 33.3867 69.33 33.3867 69.5063 33.3867C69.712 33.3867 70.1235 33.0928 69.7414 33.0635C69.5945 32.9459 69.5651 32.9165 69.6826 32.9753C69.6239 32.9459 69.5945 32.9165 69.5651 32.8577C69.4475 32.7402 69.4475 32.5638 69.5063 32.4169C69.7414 31.976 70.2998 32.4169 70.388 32.6814C70.6819 33.5043 69.8002 34.0627 69.0948 33.8276C68.3013 33.5925 67.9486 32.6226 68.3013 31.8879C68.8597 30.771 70.3586 31.3588 70.8582 32.1818C70.917 32.4463 71.4754 32.2699 71.3579 32.0642Z" fill="#FFDE17"/>
<path d="M41.1165 61.6016C40.0585 61.337 39.2943 62.0718 38.8829 62.9535C38.5008 63.7176 38.2951 64.9814 39.0004 65.628C39.5588 66.157 40.4699 65.8631 41.0577 65.5398C41.8219 65.0989 42.439 64.276 42.439 63.3943C42.4684 61.0138 38.9417 61.8955 39.6176 63.5119C39.8527 64.0409 40.852 64.5993 41.3222 64.0115C41.5867 63.6588 41.4398 62.9829 40.9695 62.9241C40.6169 62.8947 40.1466 63.3356 40.2936 63.6882C40.323 63.7764 40.4405 63.8058 40.5581 63.8058C40.705 63.8058 40.7932 63.747 40.9108 63.6588C40.7932 63.6882 40.6757 63.747 40.5875 63.7764H40.6169C40.852 63.7764 41.2047 63.4237 40.8226 63.4237C40.7638 63.4237 40.705 63.4237 40.6463 63.4531C40.4993 63.4825 40.323 63.5119 40.6463 63.4825C40.7344 63.5119 40.8226 63.5413 40.9108 63.6001C40.852 63.5119 40.9402 63.4237 40.9695 63.3356C40.852 63.5413 40.7344 63.218 40.852 63.4531C40.9108 63.5707 40.9402 63.747 40.9108 63.8646C40.8814 64.0115 40.852 63.9233 40.9402 63.9233C40.8226 63.894 40.705 63.8352 40.6169 63.7764C40.323 63.6001 40.1466 63.3356 40.176 62.9829C40.2642 62.3069 41.0871 62.16 41.528 62.542C41.9982 62.9829 41.9982 63.7764 41.7337 64.3348C41.381 65.0695 40.0585 66.2158 39.3825 65.2459C38.7359 64.3642 39.5294 61.6603 40.852 61.9836C40.9695 61.9836 41.4398 61.6603 41.1165 61.6016Z" fill="#FFDE17"/>
<path d="M44.0556 32.9761C44.0556 32.9761 44.5258 32.9761 44.5552 33.0642C44.5846 33.1524 43.8205 33.0936 43.3796 33.3875C42.9388 33.6814 43.2327 32.8291 43.2327 32.8291L44.0556 32.9761Z" fill="white"/>
<path d="M30.9479 33.6813C30.9479 33.6813 30.5952 33.4756 30.507 33.4756C30.4189 33.4756 30.654 33.6813 30.9479 33.887C31.2418 34.0928 31.4769 34.3867 31.6826 34.71C31.8884 35.0332 32.1235 34.8569 32.1235 34.8569L31.5063 33.8577L30.9479 33.6813Z" fill="white"/>
<path d="M42.9091 32.9167C42.9091 33.4163 42.9679 33.9159 42.7916 34.4155C42.674 34.7094 43.2324 34.7094 43.3206 34.4743C43.5263 33.9453 43.4969 33.4163 43.4969 32.8873C43.4969 32.5934 42.9091 32.6815 42.9091 32.9167Z" fill="#ED1C24"/>
<path d="M43.4965 32.1824C43.5552 33.1523 43.4083 34.034 42.9381 34.8863C42.8205 35.092 43.3789 35.0332 43.4671 34.8863C43.9667 33.9752 44.143 33.0347 44.0843 32.0061C44.0549 31.8591 43.4965 31.9767 43.4965 32.1824Z" fill="#ED1C24"/>
<path d="M43.9381 32.2704C43.9381 33.5047 43.7617 34.6509 43.1446 35.7678C42.9976 36.0029 43.5854 35.9441 43.6736 35.7972C44.3202 34.6803 44.4965 33.5047 44.4965 32.241C44.5259 31.9765 43.9381 32.094 43.9381 32.2704Z" fill="#ED1C24"/>
<path d="M30.4181 32.4762C30.7413 34.0045 31.1822 35.5621 32.0345 36.8847C32.1227 37.0316 32.6517 36.8259 32.5929 36.7377C31.7406 35.4152 31.2998 33.8575 30.9765 32.3293C30.9765 32.1823 30.3887 32.2999 30.4181 32.4762Z" fill="#ED1C24"/>
<path d="M30.9464 32.1228C31.0345 33.7686 31.2403 35.4144 31.9162 36.9427C32.0338 37.1778 32.5922 37.0015 32.4746 36.7958C31.7987 35.2969 31.6223 33.6804 31.5342 32.064C31.5048 31.7701 30.917 31.8877 30.9464 32.1228Z" fill="#ED1C24"/>
<path d="M31.5343 34.3278C31.593 35.4447 32.3278 36.3557 33.0919 37.0611C33.2683 37.2374 33.7973 37.0023 33.6209 36.826C32.9156 36.1794 32.1515 35.2977 32.0927 34.2691C32.0927 33.9752 31.5049 34.0927 31.5343 34.3278Z" fill="#ED1C24"/>
<path d="M29.6828 32.7692C30.0942 34.0036 30.7702 35.091 31.5931 36.0609C31.7107 36.1784 32.1809 35.9433 32.1515 35.9139C31.3286 34.9147 30.6526 33.8272 30.2412 32.6223C30.2118 32.4753 29.6534 32.6516 29.6828 32.7692Z" fill="#ED1C24"/>
<path d="M43.4081 31.5061C43.5257 29.2724 40.4691 28.6553 38.7939 28.332C38.6764 28.3026 38.1767 28.5083 38.3237 28.5377C39.9401 28.8904 42.9379 29.4782 42.8203 31.6824C42.8497 31.7118 43.4081 31.653 43.4081 31.5061Z" fill="#ED1C24"/>
<path d="M42.968 31.1238C42.7623 29.86 41.5867 29.0371 40.4405 28.6844C40.2348 28.6257 39.7645 28.9196 40.0878 29.0371C41.1459 29.3604 42.2039 30.1539 42.4096 31.3001C42.439 31.5059 42.9974 31.3589 42.968 31.1238Z" fill="#ED1C24"/>
<path d="M32.7405 29.5079C33.8279 28.1559 35.3856 27.6857 37.0608 27.5975C37.2372 27.5975 37.678 27.333 37.2959 27.333C35.3856 27.4506 33.4459 27.9796 32.2115 29.5372C32.0939 29.6842 32.6523 29.6254 32.7405 29.5079Z" fill="#ED1C24"/>
<path d="M33.1511 29.7424C34.356 28.5962 35.8549 27.979 37.5007 27.8027C37.7946 27.7733 37.971 27.4206 37.5595 27.45C35.708 27.6557 34.0034 28.3317 32.6514 29.6248C32.4457 29.8306 33.0041 29.8893 33.1511 29.7424Z" fill="#ED1C24"/>
<path d="M29.918 34.1807C29.9767 36.62 30.9466 38.7067 33.0039 40.0586C33.2096 40.2056 33.7093 39.9117 33.4447 39.7353C31.505 38.4422 30.5352 36.4731 30.5058 34.1513C30.4764 33.828 29.918 33.9161 29.918 34.1807Z" fill="#ED1C24"/>
<path d="M30.6826 38.1485C32.0933 39.8238 33.7979 41.0875 35.8552 41.8517C36.0315 41.9104 36.5605 41.6459 36.296 41.5578C34.2387 40.823 32.5929 39.5593 31.1822 37.9134C31.0646 37.7665 30.5062 37.9722 30.6826 38.1485Z" fill="#ED1C24"/>
<path d="M44.2321 32.9749C44.2615 33.1807 44.3202 33.4452 44.2321 33.6509C44.1439 33.9742 44.7023 33.9742 44.7611 33.7097C44.8493 33.4158 44.8199 33.1219 44.7611 32.828C44.7317 32.5635 44.1733 32.7104 44.2321 32.9749Z" fill="#ED1C24"/>
<path d="M43.1729 32.8577C43.1729 33.034 43.2022 33.181 43.2022 33.3573C43.2022 33.5043 43.79 33.3867 43.7606 33.2104C43.7606 33.034 43.7313 32.8871 43.7313 32.7108C43.7313 32.5932 43.1729 32.6814 43.1729 32.8577Z" fill="#ED1C24"/>
<path d="M30.6242 34.7094C30.9181 37.1488 32.3876 39.4118 34.5918 40.558C34.7681 40.6462 35.2971 40.3816 35.0326 40.2641C32.8872 39.1473 31.5059 36.943 31.212 34.5625C31.1532 34.3273 30.5948 34.4743 30.6242 34.7094Z" fill="#ED1C24"/>
<path d="M32.5636 31.9171C32.2403 34.9149 33.9155 38.5886 35.9728 40.7047C36.0609 40.8223 36.59 40.5871 36.5018 40.499C34.4739 38.4123 32.8281 34.7092 33.1514 31.7408C33.122 31.682 32.5636 31.7408 32.5636 31.9171Z" fill="#ED1C24"/>
<path d="M31.829 33.9453C31.7115 36.6786 33.7688 38.9122 35.8554 40.4405C36.0318 40.5874 36.5608 40.3229 36.2963 40.1172C34.3272 38.6771 32.2993 36.5316 32.3874 33.8866C32.4168 33.622 31.829 33.7102 31.829 33.9453Z" fill="#ED1C24"/>
<path d="M33.6215 36.179C33.9742 37.5016 35.091 38.3833 36.2078 39.0592C36.4135 39.1768 36.9132 38.9123 36.6487 38.7359C35.5906 38.1188 34.5032 37.2665 34.1799 36.0321C34.1211 35.7676 33.5627 35.9145 33.6215 36.179Z" fill="#ED1C24"/>
<path d="M30.3889 39.2057C33.181 43.0264 39.1177 43.3791 43.3498 42.5268C43.7025 42.468 43.585 42.0859 43.2617 42.1447C39.2647 42.9382 33.5924 42.5562 30.9473 38.9412C30.7416 38.7355 30.2126 38.9706 30.3889 39.2057Z" fill="#ED1C24"/>
<path d="M30.5355 41.9096C33.4451 44.1432 37.6772 42.5856 40.7925 41.6745C41.1158 41.5863 41.057 41.2924 40.7044 41.3806C37.7654 42.2329 33.7978 43.7611 31.0645 41.6745C30.8882 41.5569 30.3592 41.792 30.5355 41.9096Z" fill="#ED1C24"/>
<path d="M44.6718 31.9761C44.5837 33.5925 44.4073 35.1796 44.1134 36.7666C44.084 36.8842 44.6424 36.796 44.6718 36.6784C44.9657 35.0914 45.1421 33.475 45.2302 31.8291C45.2596 31.741 44.7012 31.8291 44.6718 31.9761Z" fill="#ED1C24"/>
<path d="M41.5871 32.7111L40.7054 32.7405C40.7054 32.7405 40.6761 32.7699 40.7642 32.7111C40.8524 32.6524 41.0581 32.5642 41.2345 32.476C41.6165 32.3291 41.7635 32.2115 41.7635 32.2115L41.7341 32.1233L40.6761 32.3585C40.6761 32.3585 41.1463 31.8294 41.3814 31.6531C41.6165 31.4768 41.3226 31.3592 41.1169 31.5649C40.9993 31.6825 40.7348 31.9764 40.4409 32.0939C40.147 32.2115 39.7062 32.1527 39.6474 32.0352C39.5298 31.8 39.6474 31.271 39.5299 31.1241C39.4711 31.0653 39.4123 31.0065 39.3829 31.5061C39.3535 31.9176 39.1478 32.2409 39.236 32.5054C39.3535 32.7699 39.1772 33.5047 39.1772 33.5047C39.1772 33.5047 34.2103 37.4429 33.7988 37.2372C33.358 37.0314 33.4755 36.4436 33.9164 36.2967C34.3572 36.1497 34.416 35.8558 34.2985 35.5913C34.1515 35.3562 33.6519 34.3863 33.0641 33.9749C32.4763 33.534 31.7709 33.8573 31.0362 34.7096C30.3014 35.5326 31.5358 36.6788 31.5358 36.6788C31.5358 36.6788 31.624 36.7669 31.8591 36.8551C32.0942 36.9727 32.3 37.678 31.4476 38.0013C30.6247 38.3246 31.3301 39.6471 31.3301 39.6471L31.4476 39.9704C31.4476 39.941 31.477 40.0292 31.7415 40.5582C31.9767 41.0578 31.9179 43.4972 31.8297 45.7014C33.0641 45.9953 34.3278 46.1717 35.5916 46.1717C35.8561 46.1717 36.1206 46.1717 36.3851 46.1717C36.0325 43.2327 35.621 39.559 35.7386 38.9124C35.9149 37.8543 37.9722 36.473 38.7657 35.3268C39.2947 34.5921 39.9413 33.4459 40.5879 32.9462C40.7642 32.7993 41.3226 32.7405 41.4696 32.7111C41.6165 32.7699 41.5871 32.7111 41.5871 32.7111Z" fill="white"/>
<path d="M32.2404 38.3535L29.6247 34.9737C29.6247 34.9737 29.5659 34.2389 29.6247 33.9156C29.6835 33.5924 29.9186 33.0633 29.9186 33.0633C29.9186 33.0633 29.801 33.0046 29.7128 33.0633C29.5659 33.1515 29.4189 33.416 29.3896 33.5336C29.3014 33.7099 28.8605 33.945 28.7136 33.2691C28.6548 33.0046 28.5079 32.6813 28.3903 32.5637C28.3021 32.4462 28.1846 32.5049 28.1846 32.5049L28.4197 33.4748C28.3021 33.7099 27.9788 33.0339 27.6849 32.8576C27.5968 32.7988 27.4792 32.8576 27.4498 32.887C27.4498 32.9752 27.5674 33.0046 27.9201 33.5042C28.3315 34.0626 27.7731 33.6511 27.5086 33.4454C27.4498 33.416 27.391 33.4748 27.391 33.5042C27.3617 33.563 27.8025 33.9744 27.9788 34.1508C28.1552 34.2977 29.272 35.9435 29.272 35.9435C29.272 35.9435 30.2713 37.8833 31.2705 39.7936C32.0053 41.2631 32.74 42.7032 32.9751 43.291C33.5335 44.6429 33.1221 39.6467 33.1221 39.6467L32.2404 38.3535Z" fill="white"/>
<path d="M40.6166 33.0047C40.6166 33.0047 41.2044 32.9753 41.2338 33.0635C41.2632 33.1517 40.5284 33.1223 40.2051 33.4162C39.8818 33.7101 39.8818 33.2692 39.8818 33.2692L40.6166 33.0047Z" fill="white"/>
<path d="M28.0381 34.1798C28.0381 34.1798 27.6266 33.9153 27.5385 33.9447C27.4503 33.9741 27.5385 34.0622 27.8324 34.268C28.1263 34.4737 28.5671 34.9439 28.7435 35.179C28.9198 35.4142 28.7435 34.3561 28.7435 34.3561L28.0381 34.1798Z" fill="white"/>
<path d="M48.5221 36.1205L47.8755 36.1499C47.8755 36.1499 47.8461 36.1793 47.9049 36.1205C47.9636 36.0912 48.1106 36.003 48.2575 35.9442C48.5221 35.856 48.6396 35.7679 48.6396 35.7679L48.6102 35.7091L47.8461 35.8854C47.8461 35.8854 48.1988 35.5034 48.3751 35.3564C48.5514 35.2095 48.3163 35.1507 48.1694 35.2976C48.0812 35.3858 47.9049 35.5915 47.6697 35.6797C47.4346 35.7679 47.1113 35.7385 47.082 35.6503C46.9938 35.474 47.082 35.0919 46.9938 34.9743C46.9644 34.9156 46.9056 34.8862 46.8762 35.2682C46.8468 35.5915 46.6999 35.8266 46.7881 36.003C46.8762 36.2087 46.7587 36.7377 46.7587 36.7377C46.7587 36.7377 43.0849 39.6473 42.791 39.5004C42.4678 39.3534 42.5559 38.9126 42.8792 38.8244C43.2025 38.7362 43.2613 38.5011 43.1437 38.3248C43.0555 38.1484 42.6735 37.4431 42.2326 37.1198C41.7918 36.7965 41.2922 37.0316 40.7338 37.6488C40.1753 38.266 41.1158 39.1183 41.1158 39.1183C41.1158 39.1183 41.1746 39.1771 41.3509 39.2653C41.5273 39.3534 41.6742 39.8824 41.057 40.1176C40.4399 40.3527 40.9689 41.3519 40.9689 41.3519L41.057 41.587C41.057 41.5577 41.0864 41.6164 41.2922 42.0279C41.4685 42.41 42.6735 43.8501 41.3509 45.8192C42.262 46.0543 43.1143 45.4371 44.0842 45.4371C44.2899 45.4371 44.3487 44.9669 44.525 44.9669C44.2605 42.792 43.996 41.0874 44.0842 40.6172C44.2311 39.8237 45.9064 38.9714 46.4942 38.1484C46.8762 37.6194 47.3759 36.7671 47.8461 36.385C47.9636 36.2969 48.4045 36.2381 48.4927 36.2087C48.5514 36.1793 48.5221 36.1205 48.5221 36.1205Z" fill="white"/>
<path d="M41.615 40.2939L39.6753 37.7957C39.6753 37.7957 39.6459 37.2667 39.6753 37.0316C39.7047 36.7965 39.881 36.385 39.881 36.385C39.881 36.385 39.7929 36.3262 39.7047 36.385C39.6165 36.4438 39.499 36.6495 39.4696 36.7377C39.4108 36.8846 39.0875 37.0316 38.97 36.532C38.9406 36.3262 38.823 36.1205 38.7348 36.0029C38.6467 35.9148 38.5879 35.9442 38.5879 35.9442L38.7642 36.6495C38.6761 36.8258 38.4409 36.3262 38.2058 36.1793C38.147 36.1499 38.0589 36.1793 38.0295 36.2087C38.0295 36.2674 38.1177 36.2968 38.3822 36.6495C38.6761 37.061 38.294 36.7377 38.0589 36.5907C38.0295 36.5613 37.9707 36.6201 37.9707 36.6201C37.9707 36.6495 38.2646 36.9728 38.4116 37.0904C38.5585 37.2079 39.352 38.4129 39.352 38.4129C39.352 38.4129 40.0868 39.8236 40.8215 41.2637C41.3799 42.3511 41.9089 43.4092 42.0853 43.85C42.4967 44.8493 42.2028 41.1755 42.2028 41.1755L41.615 40.2939Z" fill="white"/>
<path d="M47.8161 36.355C47.8161 36.355 48.257 36.3256 48.2864 36.3844C48.2864 36.4432 47.7573 36.4138 47.5222 36.6489C47.2871 36.884 47.2871 36.5313 47.2871 36.5313L47.8161 36.355Z" fill="white"/>
<path d="M38.5292 37.2076C38.5292 37.2076 38.2353 37.0312 38.1765 37.0312C38.1177 37.0312 38.1765 37.1194 38.4116 37.2664C38.6467 37.4133 38.97 37.766 39.0876 37.9423C39.2051 38.1187 39.0876 37.3251 39.0876 37.3251L38.5292 37.2076Z" fill="white"/>
<path d="M43.849 40.1758C43.849 40.1758 44.5544 40.6754 44.1429 41.3514C43.7315 42.0273 43.0555 42.1743 43.0555 42.1743C43.0555 42.1743 42.791 42.0861 42.791 41.9392C42.791 41.7922 43.849 40.1758 43.849 40.1758Z" fill="white"/>
<path d="M40.8217 38.5889C40.8217 38.5889 39.4992 38.7064 39.411 40.2935C39.3228 41.8511 37.9121 42.6153 37.9121 42.6153C37.9121 42.6153 38.7938 42.821 39.3522 42.5565C39.9106 42.292 40.4984 41.2927 40.6454 40.6462C40.7923 39.9996 40.7041 39.0591 41.0568 38.824C41.3801 38.5889 40.8217 38.5889 40.8217 38.5889Z" fill="white"/>
<path d="M82.7031 30.301C83.2027 30.301 83.6142 30.2716 83.8493 30.2128C84.1138 30.154 84.3783 30.0659 84.6134 29.9777L84.2607 31.5354C84.202 31.7999 84.1138 31.9468 83.9962 31.9762C83.8787 32.0056 83.6435 32.035 83.2909 32.035C82.7325 32.0056 82.2622 32.0056 81.8802 32.0056C81.5275 32.0056 81.1748 32.0056 80.8221 32.0056C80.4694 32.0056 80.2343 32.0056 80.0874 32.0056C79.5584 32.0056 78.9999 32.0056 78.4709 32.0056C77.9419 32.0056 77.4129 32.035 76.8545 32.035C76.9133 31.888 76.9427 31.7411 77.0014 31.6235C77.0602 31.506 77.0896 31.3296 77.119 31.1533C77.1484 30.9476 77.1778 30.7124 77.1778 30.4479C77.2072 30.1834 77.2072 29.8014 77.2072 29.3899V19.6619C77.2072 19.221 77.2072 18.839 77.1778 18.5451C77.1484 18.2512 77.1484 18.016 77.119 17.8103C77.0896 17.6046 77.0602 17.4576 77.0014 17.3401C76.9427 17.2225 76.9133 17.105 76.8545 16.958H79.7053C79.6465 17.0756 79.6171 17.1931 79.5584 17.3107C79.4996 17.4282 79.4702 17.5752 79.4408 17.7809C79.4114 17.9867 79.382 18.2218 79.3526 18.5157C79.3232 18.8096 79.3232 19.1916 79.3232 19.6325V30.2422H82.7031V30.301Z" fill="#F15A29"/>
<path d="M88.4347 28.3022C88.4347 28.6842 88.4347 29.0369 88.4347 29.3014C88.4347 29.5659 88.4347 29.801 88.4347 30.0362C88.4347 30.2419 88.4641 30.4182 88.4641 30.5946C88.4641 30.7415 88.4935 30.8885 88.4935 31.0354C88.5229 31.2999 88.5523 31.4763 88.5817 31.6232C88.611 31.7702 88.6698 31.8877 88.6992 32.0347H86.2599C86.3186 31.9171 86.348 31.7995 86.3774 31.6526C86.4068 31.535 86.4362 31.3293 86.4656 31.0942C86.495 30.8591 86.495 30.5064 86.5244 30.0655C86.5538 29.6247 86.5538 29.0369 86.5538 28.3022V26.333C86.5538 26.0979 86.5538 25.8628 86.5538 25.5983C86.5538 25.3338 86.5538 25.0693 86.5538 24.8048C86.5538 24.5403 86.5244 24.2757 86.5244 24.0112C86.5244 23.7467 86.495 23.5116 86.495 23.3059C86.4656 23.012 86.4362 22.7769 86.3774 22.6005C86.3186 22.4242 86.2892 22.2479 86.2305 22.1009L88.4347 21.3662V28.3022ZM87.4942 16.752C87.8175 16.752 88.082 16.8695 88.2878 17.0752C88.4935 17.281 88.611 17.5455 88.611 17.8394C88.611 18.1333 88.4935 18.3978 88.2878 18.6035C88.082 18.8092 87.8175 18.9268 87.4942 18.9268C87.1709 18.9268 86.9064 18.8092 86.7007 18.6035C86.495 18.3978 86.3774 18.1333 86.3774 17.8394C86.3774 17.5455 86.495 17.281 86.7007 17.0752C86.9064 16.8695 87.2003 16.752 87.4942 16.752Z" fill="#F15A29"/>
<path d="M100.161 22.5421C100.102 22.8066 99.9845 22.9535 99.8082 22.9829C99.6318 23.0417 99.4555 23.0417 99.2204 23.0417C99.191 23.0417 99.0734 23.0417 98.8971 23.0417C98.7207 23.0417 98.4856 23.0123 98.2505 22.9829C98.3681 23.1593 98.4856 23.3944 98.6326 23.7177C98.7501 24.0116 98.8383 24.423 98.8383 24.952C98.8383 25.4223 98.7795 25.8631 98.6326 26.304C98.4856 26.7448 98.2799 27.1269 98.0154 27.4502C97.7215 27.7735 97.3688 28.038 96.9573 28.2437C96.5165 28.4494 96.0169 28.567 95.4291 28.567C95.1646 28.567 94.9001 28.567 94.6649 28.5964C94.4298 28.6258 94.2241 28.6552 94.0184 28.7139C93.842 28.7727 93.6951 28.8903 93.5775 29.0078C93.46 29.1548 93.4012 29.3311 93.4012 29.5663C93.4012 29.8308 93.4893 30.0365 93.6951 30.2422C93.8714 30.4186 94.1653 30.5361 94.5768 30.5361C94.6355 30.5361 94.7531 30.5361 94.9001 30.5361C95.0764 30.5361 95.2527 30.5361 95.4585 30.5361C95.6348 30.5361 95.8111 30.5361 95.9875 30.5361C96.1638 30.5361 96.252 30.5361 96.3108 30.5361C96.5753 30.5361 96.8986 30.5655 97.3394 30.5949C97.7803 30.6537 98.1917 30.7418 98.6032 30.9182C99.0146 31.0945 99.3673 31.359 99.6612 31.7117C99.9551 32.0644 100.102 32.564 100.102 33.1812C100.102 33.769 99.9551 34.298 99.6318 34.7095C99.3085 35.1209 98.8971 35.4442 98.4268 35.7087C97.9272 35.9438 97.3982 36.1202 96.8104 36.2377C96.2226 36.3553 95.6642 36.3847 95.1352 36.3847C94.3123 36.3847 93.6657 36.2965 93.1073 36.1202C92.5783 35.9438 92.1668 35.7381 91.8435 35.4442C91.5496 35.1797 91.3145 34.8858 91.1969 34.5625C91.0794 34.2392 90.9912 33.9159 90.9912 33.622C90.9912 33.2694 91.0794 32.9461 91.2263 32.6522C91.3733 32.3583 91.579 32.0938 91.8435 31.8293C92.0199 31.6823 92.1668 31.5942 92.3138 31.5354C92.4607 31.4766 92.6077 31.3884 92.784 31.3296C92.6958 31.3003 92.6077 31.2415 92.4607 31.1827C92.3138 31.1239 92.1962 31.0357 92.0786 30.8888C91.9611 30.7712 91.8435 30.6243 91.7553 30.4186C91.6672 30.2422 91.6084 30.0071 91.6084 29.7132C91.6084 29.4193 91.6672 29.1842 91.7553 28.9785C91.8435 28.7727 91.9611 28.5964 92.108 28.4788C92.255 28.3319 92.3725 28.2437 92.5195 28.1849C92.6664 28.1262 92.7546 28.0674 92.8428 28.038C92.7546 27.9792 92.6076 27.891 92.4313 27.7441C92.255 27.5971 92.0786 27.4208 91.9023 27.1563C91.726 26.9212 91.579 26.6273 91.4615 26.2452C91.3439 25.8925 91.2557 25.4517 91.2557 24.952C91.2557 24.6288 91.3145 24.2761 91.4027 23.8352C91.4908 23.4238 91.6966 23.0123 91.9611 22.6303C92.2256 22.2482 92.6077 21.9249 93.0779 21.6604C93.5481 21.3959 94.1947 21.2783 94.9588 21.2783C95.1058 21.2783 95.2527 21.2783 95.3703 21.2783C95.4879 21.2783 95.6348 21.3077 95.7524 21.3077C95.8993 21.3371 96.0757 21.3665 96.2814 21.3959C96.4871 21.4547 96.781 21.484 97.1337 21.5428C97.1925 21.5722 97.2806 21.5722 97.3982 21.5722C97.5157 21.5722 97.6333 21.5722 97.7803 21.5722C97.9272 21.5722 98.0448 21.5722 98.1623 21.5722C98.3093 21.5722 98.3974 21.5722 98.4856 21.5722C99.1028 21.5722 99.5143 21.5428 99.7788 21.5134C100.014 21.484 100.22 21.4253 100.396 21.3665L100.161 22.5421ZM95.6348 31.9468C95.2821 31.9468 94.9588 31.9762 94.6355 32.035C94.3123 32.0938 94.0184 32.1819 93.7245 32.3289C93.46 32.4758 93.2248 32.6228 93.0779 32.8285C92.9016 33.0343 92.8428 33.2694 92.8428 33.5339C92.8428 33.622 92.8722 33.7396 92.9309 33.9159C92.9897 34.0629 93.0779 34.2392 93.2542 34.3862C93.4306 34.5331 93.6657 34.6801 93.989 34.7976C94.3123 34.9152 94.7531 34.974 95.2821 34.974C95.6936 34.974 96.105 34.9446 96.4577 34.8858C96.8104 34.827 97.1337 34.7095 97.4276 34.5919C97.6921 34.445 97.9272 34.298 98.0742 34.0923C98.2211 33.8866 98.3093 33.6514 98.3093 33.3869C98.3093 33.0343 98.1917 32.7697 97.986 32.5934C97.7509 32.4171 97.5157 32.2701 97.2218 32.1819C96.928 32.0938 96.6341 32.0644 96.3402 32.035C95.9875 31.9762 95.7817 31.9468 95.6348 31.9468ZM97.0749 24.9814C97.0749 24.423 96.9867 23.9822 96.8398 23.6883C96.6634 23.3944 96.4871 23.1593 96.252 23.0123C96.0169 22.8654 95.8111 22.7772 95.6054 22.7184C95.3997 22.689 95.2233 22.6596 95.1352 22.6596C94.9588 22.6596 94.7825 22.689 94.5474 22.7478C94.3123 22.8066 94.1065 22.8948 93.9008 23.0711C93.6951 23.2474 93.5187 23.4826 93.3718 23.7765C93.2248 24.0704 93.1367 24.4818 93.1367 25.0108C93.1367 25.5398 93.2248 25.9807 93.3718 26.2746C93.5481 26.5685 93.7245 26.8036 93.9596 26.9506C94.1947 27.0975 94.4004 27.1857 94.6062 27.2445C94.8119 27.2738 94.9882 27.3032 95.0764 27.3032C95.194 27.3032 95.3409 27.2738 95.576 27.2445C95.8111 27.2151 96.0169 27.0975 96.2226 26.9506C96.4283 26.8036 96.6341 26.5685 96.781 26.2452C96.9867 25.9513 97.0749 25.5105 97.0749 24.9814Z" fill="#F15A29"/>
<path d="M110.535 28.3028C110.535 28.92 110.535 29.449 110.535 29.8311C110.535 30.2425 110.565 30.6246 110.594 31.0067C110.623 31.2712 110.653 31.4475 110.682 31.5945C110.711 31.7414 110.77 31.859 110.8 32.0059H108.36C108.39 31.859 108.448 31.7414 108.478 31.5945C108.507 31.4475 108.537 31.2712 108.566 31.0067C108.595 30.5658 108.625 30.125 108.625 29.6547C108.625 29.1845 108.625 28.7437 108.625 28.2734V25.0111C108.625 24.7466 108.625 24.4821 108.595 24.247C108.566 24.0119 108.507 23.7768 108.419 23.571C108.302 23.3653 108.155 23.2184 107.919 23.1008C107.684 22.9832 107.361 22.9245 106.95 22.9245C106.568 22.9245 106.215 22.9539 105.892 23.042C105.598 23.1302 105.304 23.2184 105.069 23.3359C104.834 23.4535 104.628 23.571 104.481 23.718C104.304 23.8356 104.187 23.9531 104.099 24.0119V28.2734C104.099 28.6555 104.099 29.0082 104.099 29.3021C104.099 29.5666 104.099 29.8017 104.099 30.0368C104.099 30.2425 104.128 30.4189 104.128 30.5952C104.128 30.7422 104.158 30.8891 104.158 31.0361C104.187 31.3006 104.216 31.4769 104.275 31.6239C104.304 31.7708 104.363 31.8884 104.422 32.0353H101.983C102.041 31.8884 102.071 31.7708 102.1 31.6239C102.13 31.4769 102.159 31.3006 102.188 31.0361C102.218 30.5952 102.247 30.1544 102.247 29.6841C102.247 29.2139 102.247 28.773 102.247 28.3028V20.8966C102.247 20.2794 102.247 19.7504 102.247 19.3683C102.247 18.9568 102.218 18.6336 102.218 18.3984C102.188 18.1633 102.188 17.9576 102.159 17.8106C102.13 17.6637 102.13 17.5167 102.1 17.3992C102.071 17.2228 102.041 17.1053 102.012 16.9877C101.983 16.8702 101.924 16.7526 101.895 16.635L104.128 15.9297L104.158 22.3367C104.275 22.2485 104.422 22.1603 104.598 22.0428C104.775 21.9252 105.01 21.837 105.245 21.7195C105.509 21.6019 105.803 21.5138 106.156 21.455C106.509 21.3668 106.92 21.3374 107.361 21.3374C107.978 21.3374 108.566 21.4256 109.095 21.6313C109.624 21.837 110.006 22.1603 110.241 22.6012C110.388 22.8657 110.476 23.1596 110.506 23.4535C110.535 23.7474 110.535 24.1882 110.535 24.8054V28.3028Z" fill="#F15A29"/>
<path d="M112.857 21.4256C113.093 21.455 113.269 21.4844 113.386 21.4844C113.533 21.4844 113.71 21.5138 113.945 21.5138V19.0744L115.796 18.3984V21.5138H117.707C118.03 21.5138 118.353 21.455 118.706 21.3668C118.647 21.7783 118.618 22.1016 118.588 22.3367C118.559 22.5718 118.5 22.7481 118.441 22.8657C118.383 22.9833 118.295 23.042 118.148 23.0714C118.03 23.1008 117.883 23.1302 117.677 23.1302H115.796V28.9494C115.796 29.449 115.855 29.8605 115.973 30.1544C116.09 30.4777 116.355 30.6246 116.825 30.6246C117.237 30.6246 117.619 30.507 117.942 30.2719C118.295 30.0368 118.588 29.7723 118.882 29.4784C118.853 29.9486 118.853 30.3307 118.824 30.5952C118.794 30.8597 118.765 31.0655 118.735 31.2124C118.706 31.3594 118.647 31.4475 118.588 31.5063C118.53 31.5651 118.471 31.5945 118.383 31.6532C118.206 31.7708 117.942 31.8884 117.589 32.0059C117.207 32.1235 116.766 32.1823 116.237 32.1823C115.649 32.1823 115.209 32.0941 114.885 31.8884C114.562 31.712 114.327 31.4769 114.18 31.183C114.033 30.9185 113.945 30.5952 113.915 30.2719C113.886 29.9486 113.886 29.6254 113.886 29.3315V23.1008H112.857V21.4256Z" fill="#F15A29"/>
<path d="M131.344 23.8061C131.05 23.8355 130.668 23.8649 130.197 23.9531C129.727 24.0412 129.286 24.247 128.845 24.5996C128.463 24.8935 128.169 25.2756 127.964 25.7165C127.758 26.1573 127.67 26.6275 127.67 27.1272C127.67 27.5974 127.758 28.0676 127.905 28.5085C128.081 28.9493 128.316 29.3314 128.669 29.6547C129.022 29.978 129.433 30.2425 129.962 30.4482C130.491 30.6539 131.108 30.7421 131.843 30.7421C131.99 30.7421 132.166 30.7421 132.402 30.7127C132.637 30.6833 132.931 30.6539 133.195 30.5952C133.489 30.5364 133.783 30.4482 134.106 30.3013C134.429 30.1837 134.723 30.0074 135.017 29.7723C135.458 29.4196 135.781 29.0081 135.987 28.5379C136.193 28.0676 136.31 27.5974 136.31 27.1272C136.31 27.0096 136.31 26.8627 136.281 26.6569C136.252 26.4512 136.193 26.2455 136.075 26.0397C135.958 25.834 135.811 25.6577 135.576 25.5107C135.37 25.3638 135.047 25.2756 134.694 25.2756C134.371 25.2756 134.136 25.305 133.959 25.3638C133.783 25.4226 133.607 25.5107 133.43 25.5989L133.489 24.4821C133.518 24.1882 133.577 24.0118 133.753 23.9531C133.9 23.8943 134.224 23.8649 134.723 23.8649H138.015C138.632 23.8649 139.073 23.8355 139.338 23.7767C139.602 23.7179 139.867 23.6592 140.131 23.571L139.808 24.776C139.72 25.0699 139.602 25.2462 139.426 25.305C139.249 25.3638 139.014 25.3638 138.691 25.3638H137.574C137.721 25.5401 137.868 25.7752 137.986 26.0397C138.133 26.3043 138.191 26.6863 138.191 27.1859C138.191 27.6856 138.074 28.2146 137.839 28.8318C137.604 29.4196 137.221 29.978 136.722 30.4776C136.193 30.9772 135.517 31.4181 134.694 31.7414C133.871 32.094 132.842 32.2704 131.637 32.2704C130.432 32.2704 129.463 32.094 128.669 31.7414C127.876 31.3887 127.258 30.9772 126.817 30.4482C126.347 29.9192 126.024 29.3608 125.848 28.7436C125.671 28.1264 125.554 27.5386 125.554 27.0096C125.554 26.2455 125.671 25.6283 125.906 25.1287C126.142 24.629 126.406 24.247 126.729 23.9237C127.053 23.6298 127.376 23.3947 127.729 23.2477C128.052 23.1008 128.346 22.9832 128.522 22.9244C128.375 22.8656 128.228 22.7775 128.022 22.6893C127.817 22.5717 127.64 22.4542 127.464 22.2485C127.288 22.0721 127.141 21.837 126.994 21.5431C126.876 21.2492 126.788 20.8965 126.788 20.4557C126.788 19.956 126.876 19.4858 127.082 19.0744C127.288 18.6335 127.582 18.2514 127.993 17.9282C128.405 17.6049 128.904 17.3404 129.492 17.164C130.08 16.9877 130.785 16.8701 131.579 16.8701C132.255 16.8701 132.784 16.9289 133.195 17.0171C133.607 17.1052 133.842 17.164 133.959 17.2228C134.077 17.2816 134.136 17.3991 134.136 17.5461C134.136 17.6049 134.136 17.6636 134.106 17.7224C134.077 17.7812 134.077 17.84 134.047 17.8694L133.607 18.9862C133.401 18.8686 133.166 18.7511 132.842 18.6041C132.548 18.4866 132.078 18.3984 131.49 18.3984C130.579 18.3984 129.903 18.6041 129.433 18.9862C128.963 19.3683 128.728 19.8679 128.728 20.4557C128.728 20.7496 128.787 21.0141 128.904 21.2198C129.022 21.4255 129.198 21.6019 129.374 21.7488C129.58 21.8958 129.815 21.9839 130.08 22.0427C130.344 22.1015 130.638 22.1309 130.932 22.1309C131.079 22.1309 131.226 22.1309 131.344 22.1309C131.461 22.1309 131.637 22.1015 131.814 22.0721L131.344 23.8061Z" fill="#F15A29"/>
<path d="M153.356 30.301C153.856 30.301 154.267 30.2716 154.503 30.2128C154.767 30.154 155.032 30.0659 155.267 29.9777L154.914 31.5354C154.855 31.7999 154.767 31.9468 154.65 31.9762C154.532 32.0056 154.297 32.035 153.944 32.035C153.386 32.0056 152.916 32.0056 152.533 32.0056C152.181 32.0056 151.828 32.0056 151.475 32.0056C151.123 32.0056 150.888 32.0056 150.741 32.0056C150.212 32.0056 149.653 32.0056 149.124 32.0056C148.595 32.0056 148.066 32.035 147.508 32.035C147.567 31.888 147.596 31.7411 147.655 31.6235C147.714 31.506 147.743 31.3296 147.772 31.1533C147.802 30.9476 147.831 30.7124 147.831 30.4479C147.86 30.1834 147.86 29.8014 147.86 29.3899V19.6619C147.86 19.221 147.86 18.839 147.831 18.5451C147.802 18.2512 147.802 18.016 147.772 17.8103C147.743 17.6046 147.714 17.4576 147.655 17.3401C147.596 17.2225 147.567 17.105 147.508 16.958H150.359C150.3 17.0756 150.27 17.1931 150.212 17.3107C150.153 17.4282 150.124 17.5752 150.094 17.7809C150.065 17.9867 150.035 18.2218 150.006 18.5157C149.977 18.8096 149.977 19.1916 149.977 19.6325V30.2422H153.356V30.301Z" fill="#F15A29"/>
<path d="M159.087 28.3022C159.087 28.6842 159.087 29.0369 159.087 29.3014C159.087 29.5659 159.087 29.801 159.087 30.0362C159.087 30.2419 159.116 30.4182 159.116 30.5946C159.116 30.7415 159.146 30.8885 159.146 31.0354C159.175 31.2999 159.205 31.4763 159.234 31.6232C159.263 31.7702 159.322 31.8877 159.351 32.0347H156.941C157 31.9171 157.03 31.7995 157.059 31.6526C157.088 31.535 157.118 31.3293 157.147 31.0942C157.177 30.8591 157.177 30.5064 157.206 30.0655C157.235 29.6247 157.235 29.0369 157.235 28.3022V26.333C157.235 26.0979 157.235 25.8628 157.235 25.5983C157.235 25.3338 157.235 25.0693 157.235 24.8048C157.235 24.5403 157.206 24.2757 157.206 24.0112C157.206 23.7467 157.177 23.5116 157.177 23.3059C157.147 23.012 157.118 22.7769 157.059 22.6005C157 22.4242 156.971 22.2479 156.912 22.1009L159.116 21.3662V28.3022H159.087ZM158.146 16.752C158.47 16.752 158.734 16.8695 158.94 17.0752C159.146 17.281 159.263 17.5455 159.263 17.8394C159.263 18.1333 159.146 18.3978 158.94 18.6035C158.734 18.8092 158.47 18.9268 158.146 18.9268C157.823 18.9268 157.559 18.8092 157.353 18.6035C157.147 18.3978 157.03 18.1333 157.03 17.8394C157.03 17.5455 157.147 17.281 157.353 17.0752C157.559 16.8695 157.853 16.752 158.146 16.752Z" fill="#F15A29"/>
<path d="M161.968 22.0718C162.056 21.8073 162.174 21.6603 162.35 21.6016C162.526 21.5428 162.761 21.5134 163.026 21.5134V18.9271C163.026 18.6626 163.055 18.3687 163.085 18.016C163.114 17.6927 163.202 17.3694 163.379 17.0755C163.555 16.7816 163.819 16.5465 164.201 16.3408C164.584 16.135 165.113 16.0469 165.788 16.0469C166.376 16.0469 166.876 16.135 167.287 16.282C167.699 16.4583 167.875 16.6053 167.875 16.811C167.875 16.8698 167.846 16.9874 167.787 17.1637L167.376 18.1629C167.229 18.016 167.052 17.8984 166.847 17.7515C166.641 17.6045 166.347 17.5458 166.024 17.5458C165.759 17.5458 165.553 17.6045 165.406 17.6927C165.259 17.7809 165.142 17.8984 165.083 18.0454C165.024 18.1923 164.966 18.3687 164.966 18.545C164.936 18.7507 164.936 18.9271 164.936 19.1328V21.5134H166.67L166.435 22.542C166.376 22.7478 166.288 22.8947 166.141 22.9829C166.024 23.071 165.818 23.1004 165.553 23.1004H164.877V28.3024C164.877 28.949 164.877 29.478 164.877 29.8895C164.877 30.2716 164.907 30.6536 164.936 31.0357C164.966 31.3002 164.995 31.4765 165.024 31.6235C165.054 31.7704 165.113 31.888 165.142 32.0349H162.703C162.761 31.888 162.791 31.7704 162.82 31.6235C162.85 31.4765 162.879 31.3002 162.908 31.0651C162.938 30.83 162.938 30.4773 162.967 30.0658C162.996 29.6544 162.996 29.0666 162.996 28.3318V23.1004H161.645L161.968 22.0718Z" fill="#F15A29"/>
<path d="M169.756 27.6849C169.785 27.8613 169.844 28.1258 169.932 28.4491C170.02 28.7724 170.167 29.0956 170.343 29.4189C170.52 29.7422 170.784 30.0361 171.108 30.2712C171.431 30.5064 171.872 30.6239 172.401 30.6239C172.783 30.6239 173.106 30.5651 173.4 30.477C173.694 30.3594 173.958 30.2418 174.194 30.1243C174.429 29.9773 174.605 29.8598 174.752 29.6834C174.899 29.5365 175.016 29.4189 175.105 29.3308L175.957 30.6239C175.81 30.7709 175.663 30.9178 175.457 31.0942C175.252 31.2705 174.987 31.4468 174.693 31.6232C174.399 31.7995 174.047 31.9465 173.635 32.064C173.224 32.1816 172.783 32.2404 172.283 32.2404C171.49 32.2404 170.814 32.0934 170.226 31.7995C169.638 31.5056 169.168 31.0942 168.786 30.5945C168.404 30.0949 168.11 29.5071 167.934 28.8311C167.757 28.1552 167.64 27.4792 167.64 26.7445C167.64 26.1273 167.728 25.5101 167.875 24.8635C168.022 24.2463 168.286 23.6585 168.61 23.1295C168.962 22.6005 169.403 22.189 169.961 21.8657C170.52 21.5425 171.166 21.3955 171.989 21.3955C172.842 21.3955 173.488 21.5718 173.988 21.9245C174.487 22.2772 174.84 22.6887 175.105 23.1589C175.369 23.6291 175.545 24.1288 175.634 24.6284C175.722 25.128 175.781 25.5101 175.81 25.804L169.756 27.6849ZM173.782 24.8047C173.753 24.6578 173.694 24.452 173.635 24.2169C173.547 23.9818 173.459 23.7761 173.312 23.541C173.165 23.3352 172.989 23.1589 172.753 22.9826C172.518 22.8356 172.224 22.7474 171.901 22.7474C171.666 22.7474 171.402 22.8062 171.137 22.9238C170.873 23.0413 170.637 23.2471 170.402 23.5116C170.197 23.7761 169.991 24.1288 169.873 24.5696C169.726 25.0105 169.668 25.5395 169.668 26.1567L173.782 24.8047Z" fill="#F15A29"/>
<path d="M185.832 26.6569C185.627 27.2741 185.45 27.9207 185.362 28.5673C185.245 29.2138 185.186 29.8604 185.186 30.5364C185.186 30.8891 185.215 31.1536 185.245 31.3593C185.274 31.565 185.333 31.7708 185.392 31.9765H182.923C182.982 30.2131 183.187 28.626 183.599 27.1859C184.01 25.7458 184.48 24.4527 185.039 23.3359C185.597 22.2191 186.156 21.2492 186.714 20.4263C187.302 19.6034 187.772 18.9568 188.154 18.4572C187.713 18.4278 187.243 18.4572 186.744 18.4866C186.244 18.5159 185.656 18.6041 185.039 18.7217C185.245 18.3102 185.392 17.9869 185.48 17.7518C185.568 17.5167 185.627 17.1934 185.715 16.8701C185.803 16.8995 185.891 16.8995 185.95 16.8995C186.009 16.8995 186.097 16.9289 186.244 16.9289C186.361 16.9583 186.508 16.9583 186.685 16.9583C186.861 16.9583 187.096 16.9583 187.39 16.9583H191.769C192.533 18.1927 193.151 19.5446 193.65 20.9847C194.15 22.4248 194.532 23.8355 194.826 25.1874C195.12 26.5688 195.325 27.8325 195.414 29.0375C195.531 30.2425 195.56 31.2124 195.56 31.9765H193.004C193.092 31.712 193.151 31.4769 193.209 31.2417C193.239 31.0066 193.268 30.6539 193.268 30.1543C193.268 28.9787 193.18 27.8031 193.004 26.6275H185.832V26.6569ZM192.68 25.0405C192.475 24.0118 192.181 22.9244 191.828 21.8076C191.475 20.6908 191.034 19.6034 190.505 18.5747H190.241C189.536 19.3683 188.83 20.3381 188.154 21.3962C187.478 22.4836 186.861 23.6886 186.332 25.0405H192.68Z" fill="#F15A29"/>
<path d="M205.112 30.8592C205.112 31.0649 205.053 31.2119 204.965 31.3001C204.876 31.3882 204.759 31.4764 204.641 31.5646C204.2 31.8291 203.73 32.0054 203.26 32.0936C202.79 32.1818 202.378 32.2112 202.055 32.2112C201.203 32.2112 200.497 32.0642 199.88 31.7409C199.292 31.447 198.793 31.0356 198.411 30.5065C198.029 30.0069 197.764 29.4191 197.588 28.7725C197.411 28.126 197.323 27.45 197.323 26.774C197.323 25.9805 197.411 25.2458 197.617 24.5698C197.823 23.8938 198.117 23.3354 198.528 22.8358C198.94 22.3656 199.439 21.9835 200.056 21.719C200.674 21.4545 201.379 21.3369 202.173 21.3369C202.643 21.3369 203.084 21.3663 203.436 21.4545C203.789 21.5426 204.083 21.6308 204.347 21.7484C204.583 21.8659 204.788 21.9835 204.935 22.0717C205.082 22.1892 205.17 22.248 205.229 22.3068C205.288 22.3949 205.317 22.4537 205.317 22.5419C205.317 22.6301 205.317 22.6888 205.317 22.7182C205.317 22.8064 205.288 22.9534 205.2 23.1591C205.112 23.3648 204.965 23.6881 204.729 24.1583C204.641 24.0702 204.553 23.9526 204.406 23.8057C204.259 23.6587 204.083 23.5118 203.877 23.3942C203.671 23.2473 203.436 23.1591 203.142 23.0415C202.878 22.9534 202.555 22.8946 202.173 22.8946C201.82 22.8946 201.497 22.9534 201.144 23.1003C200.821 23.2179 200.497 23.453 200.233 23.7469C199.968 24.0408 199.733 24.4228 199.557 24.9225C199.381 25.3927 199.292 25.9805 199.292 26.6859C199.292 27.1855 199.351 27.6557 199.439 28.126C199.527 28.5962 199.704 29.0077 199.939 29.3897C200.174 29.7718 200.468 30.0657 200.85 30.2714C201.232 30.5065 201.673 30.5947 202.231 30.5947C202.555 30.5947 202.878 30.5653 203.142 30.4771C203.407 30.389 203.671 30.3008 203.907 30.1539C204.142 30.0363 204.347 29.8894 204.524 29.7424C204.7 29.5955 204.876 29.4485 205.023 29.3309V30.8592H205.112Z" fill="#F15A29"/>
<path d="M207.198 23.1003C207.198 23.0709 207.198 23.0121 207.169 22.9534C207.14 22.8946 207.139 22.8064 207.139 22.7476C207.139 22.5713 207.228 22.4243 207.433 22.248C207.639 22.0717 207.904 21.9247 208.256 21.7778C208.58 21.6308 208.991 21.5426 209.403 21.4545C209.843 21.3663 210.255 21.3369 210.725 21.3369C211.519 21.3369 212.136 21.4251 212.547 21.6308C212.988 21.8365 213.282 22.0717 213.488 22.3656C213.693 22.6595 213.811 22.9534 213.84 23.2766C213.87 23.5999 213.899 23.8938 213.899 24.1289V29.1252C213.899 29.4779 213.929 29.7424 213.958 29.9775C213.987 30.2126 214.046 30.389 214.105 30.5653C214.164 30.7417 214.252 30.8592 214.369 30.9768C214.487 31.0943 214.605 31.2119 214.722 31.3295L213.517 32.0642C213.458 32.0936 213.429 32.123 213.341 32.1524C213.282 32.1818 213.223 32.2112 213.135 32.2112C213.047 32.2112 212.929 32.1524 212.782 32.0054C212.635 31.8585 212.488 31.594 212.342 31.1825C212.253 31.2707 212.165 31.3588 212.018 31.4764C211.871 31.594 211.695 31.7115 211.489 31.7997C211.283 31.9173 211.019 32.0054 210.725 32.0936C210.431 32.1818 210.078 32.2112 209.667 32.2112C209.109 32.2112 208.668 32.123 208.286 31.9173C207.933 31.7409 207.639 31.5058 207.433 31.2119C207.228 30.918 207.081 30.6241 206.993 30.2714C206.904 29.9481 206.875 29.5955 206.875 29.3016C206.875 28.5962 207.022 28.0084 207.345 27.5382C207.669 27.0679 208.08 26.7153 208.55 26.4214C209.05 26.1568 209.579 25.9511 210.196 25.8336C210.784 25.716 211.372 25.6278 211.93 25.5984V24.5992C211.93 24.3641 211.93 24.1583 211.901 23.9526C211.871 23.7469 211.812 23.5705 211.695 23.4236C211.577 23.2766 211.43 23.1297 211.225 23.0415C211.019 22.9534 210.754 22.8946 210.372 22.8946C210.314 22.8946 210.196 22.8946 209.99 22.924C209.785 22.9534 209.549 22.9827 209.256 23.0709C208.962 23.1591 208.668 23.2766 208.344 23.453C208.021 23.6293 207.698 23.8644 207.375 24.1877L207.198 23.1003ZM211.989 27.1855C211.607 27.2149 211.225 27.2443 210.872 27.3324C210.49 27.4206 210.167 27.5382 209.843 27.6851C209.549 27.8321 209.285 28.0672 209.079 28.3023C208.874 28.5668 208.785 28.8901 208.785 29.3016C208.785 29.4191 208.815 29.5661 208.844 29.713C208.873 29.86 208.932 30.0069 209.05 30.1539C209.138 30.3008 209.285 30.4184 209.461 30.5359C209.638 30.6241 209.873 30.6829 210.196 30.6829C210.578 30.6829 210.931 30.5947 211.254 30.389C211.577 30.1833 211.783 29.9775 211.871 29.7424C211.959 29.5367 211.989 29.3016 212.018 29.0958V27.1855H211.989Z" fill="#F15A29"/>
<path d="M224.745 32.0353C224.715 32.0647 224.656 32.0941 224.598 32.1235C224.509 32.1529 224.451 32.1823 224.392 32.1823C224.274 32.1823 224.157 32.0941 224.01 31.9471C223.863 31.7708 223.745 31.5357 223.628 31.2124C223.54 31.3006 223.422 31.3887 223.246 31.5063C223.099 31.6239 222.893 31.712 222.687 31.8296C222.481 31.9178 222.217 32.0059 221.923 32.0647C221.629 32.1235 221.306 32.1529 220.953 32.1529C220.248 32.1529 219.631 32.0059 219.102 31.712C218.573 31.4181 218.102 31.0361 217.75 30.5364C217.368 30.0368 217.103 29.4784 216.897 28.8024C216.721 28.1559 216.604 27.4505 216.604 26.6864C216.604 25.7165 216.721 24.8936 216.986 24.2176C217.25 23.5417 217.603 22.9539 218.014 22.5424C218.455 22.1016 218.925 21.8077 219.454 21.6019C219.983 21.3962 220.512 21.308 221.041 21.308C221.659 21.308 222.129 21.3962 222.481 21.5725C222.834 21.7489 223.099 21.8958 223.304 22.0428C223.304 21.2199 223.304 20.4557 223.304 19.721C223.304 18.9862 223.275 18.369 223.246 17.8988C223.216 17.5755 223.187 17.3404 223.157 17.1641C223.128 16.9877 223.069 16.8114 223.01 16.635L225.185 15.9297V28.3616C225.185 28.8024 225.185 29.1845 225.244 29.4784C225.274 29.7723 225.303 30.0368 225.362 30.2425C225.42 30.4483 225.479 30.654 225.597 30.8303C225.685 31.0067 225.803 31.183 225.949 31.3593L224.745 32.0353ZM223.304 23.8649C223.216 23.7768 223.128 23.6886 223.04 23.6004C222.922 23.4829 222.805 23.3947 222.628 23.2771C222.452 23.1596 222.276 23.0714 222.041 23.0126C221.806 22.9539 221.57 22.9245 221.277 22.9245C220.806 22.9245 220.395 23.042 220.042 23.2478C219.719 23.4535 219.425 23.7474 219.219 24.1294C219.013 24.5115 218.837 24.923 218.749 25.3932C218.631 25.8635 218.602 26.3631 218.602 26.8627C218.602 27.9795 218.837 28.8612 219.278 29.5372C219.719 30.2131 220.336 30.5364 221.159 30.5364C221.57 30.5364 221.982 30.4483 222.364 30.3013C222.746 30.125 223.069 29.8899 223.334 29.5666V23.8649H223.304Z" fill="#F15A29"/>
<path d="M230.21 27.2739C230.24 27.4796 230.298 27.7441 230.416 28.0968C230.504 28.4495 230.651 28.8022 230.857 29.1548C231.063 29.5075 231.357 29.8014 231.709 30.0659C232.062 30.3304 232.532 30.448 233.12 30.448C233.531 30.448 233.884 30.3892 234.237 30.2717C234.56 30.1541 234.854 30.0365 235.089 29.8896C235.324 29.7426 235.53 29.5957 235.706 29.4193C235.883 29.243 236 29.1255 236.088 29.0373L237.029 30.448C236.882 30.5949 236.705 30.7713 236.47 30.9476C236.235 31.1534 235.971 31.3297 235.647 31.506C235.324 31.6824 234.913 31.8587 234.501 31.9763C234.06 32.0938 233.561 32.182 233.002 32.182C232.15 32.182 231.415 32.0057 230.769 31.6824C230.122 31.3591 229.593 30.9182 229.182 30.3598C228.77 29.8014 228.447 29.1548 228.241 28.4201C228.035 27.6853 227.947 26.9212 227.947 26.1571C227.947 25.4811 228.035 24.8051 228.182 24.1292C228.359 23.4532 228.623 22.8066 229.005 22.2482C229.387 21.6898 229.858 21.2196 230.475 20.8669C231.063 20.5142 231.797 20.3379 232.679 20.3379C233.59 20.3379 234.325 20.5142 234.854 20.8963C235.383 21.2784 235.794 21.7192 236.088 22.2482C236.382 22.7772 236.558 23.3063 236.647 23.8353C236.735 24.3643 236.794 24.8051 236.823 25.1284L230.21 27.2739ZM234.619 24.1586C234.589 23.9822 234.531 23.7765 234.442 23.5414C234.354 23.2769 234.237 23.0418 234.09 22.8066C233.943 22.5715 233.737 22.3658 233.502 22.2188C233.237 22.0425 232.944 21.9543 232.561 21.9543C232.297 21.9543 232.032 22.0131 231.739 22.1601C231.445 22.2776 231.18 22.5127 230.945 22.8066C230.71 23.1005 230.504 23.4826 230.357 23.9528C230.21 24.4231 230.122 25.0109 230.122 25.6575L234.619 24.1586Z" fill="#F15A29"/>
<path d="M241.32 21.6017C241.408 21.5136 241.555 21.396 241.731 21.2491C241.908 21.1021 242.113 20.9846 242.378 20.8376C242.642 20.7201 242.936 20.6025 243.318 20.4849C243.671 20.3968 244.082 20.338 244.553 20.338C244.788 20.338 245.082 20.3674 245.493 20.4262C245.875 20.4849 246.257 20.6319 246.639 20.867C246.816 20.9552 246.963 21.0727 247.051 21.1903C247.139 21.3078 247.256 21.4254 247.345 21.5724C247.462 21.4842 247.609 21.3666 247.815 21.2197C248.021 21.0727 248.256 20.9552 248.55 20.8082C248.844 20.6907 249.167 20.5731 249.549 20.4555C249.931 20.3674 250.342 20.3086 250.813 20.3086C251.048 20.3086 251.342 20.338 251.636 20.3968C251.929 20.4555 252.223 20.5143 252.488 20.6319C252.752 20.7201 253.017 20.867 253.252 21.0433C253.487 21.2197 253.663 21.4254 253.81 21.6605C253.957 21.925 254.046 22.2483 254.104 22.5716C254.134 22.8949 254.163 23.3651 254.163 23.9529V27.9206C254.163 28.332 254.163 28.7141 254.163 29.0374C254.163 29.3313 254.163 29.5958 254.163 29.8309C254.163 30.066 254.193 30.2717 254.193 30.4187C254.193 30.595 254.222 30.742 254.222 30.8889C254.251 31.1534 254.281 31.3886 254.339 31.5355C254.369 31.6825 254.428 31.8294 254.486 31.9764H251.812C251.871 31.8588 251.9 31.7118 251.959 31.5649C251.988 31.4179 252.047 31.2122 252.047 30.9477C252.076 30.6832 252.106 30.3011 252.106 29.8309C252.135 29.3607 252.135 28.7141 252.135 27.9206V24.6583C252.135 24.3056 252.135 23.9529 252.106 23.659C252.076 23.3357 252.018 23.0712 251.929 22.8361C251.812 22.601 251.665 22.4247 251.43 22.3071C251.195 22.1895 250.871 22.1014 250.46 22.1014C250.078 22.1014 249.755 22.1602 249.461 22.2483C249.167 22.3365 248.932 22.4541 248.697 22.5716C248.461 22.6892 248.285 22.8361 248.138 22.9537C247.991 23.1006 247.874 23.2182 247.786 23.277V27.9499C247.786 28.6847 247.786 29.2431 247.786 29.6839C247.786 30.1248 247.815 30.5363 247.844 30.9183C247.874 31.2122 247.903 31.4179 247.962 31.5649C247.991 31.7118 248.05 31.8588 248.109 32.0057H245.405C245.464 31.8882 245.493 31.7706 245.552 31.6237C245.611 31.4767 245.64 31.3004 245.669 31.0065C245.699 30.742 245.728 30.3599 245.728 29.8603C245.758 29.3901 245.758 28.7141 245.758 27.8912V24.3938C245.758 24.1587 245.758 23.9235 245.728 23.6296C245.699 23.3651 245.64 23.1006 245.523 22.8655C245.405 22.6304 245.229 22.4541 244.993 22.3071C244.758 22.1602 244.435 22.072 243.994 22.072C243.377 22.072 242.877 22.1895 242.495 22.4541C242.113 22.6892 241.731 22.9537 241.408 23.2476V27.9206C241.408 28.6553 241.408 29.2137 241.408 29.6546C241.408 30.0954 241.437 30.5069 241.467 30.8889C241.496 31.1828 241.525 31.3886 241.584 31.5355C241.614 31.6825 241.672 31.8294 241.731 31.9764H239.057C239.116 31.8588 239.145 31.7118 239.204 31.5649C239.233 31.4179 239.292 31.2122 239.292 30.9477C239.321 30.6832 239.351 30.3011 239.351 29.8309C239.38 29.3607 239.38 28.7435 239.38 27.9206V25.8045C239.38 25.7751 239.38 25.6282 239.38 25.393C239.38 25.1285 239.38 24.8346 239.38 24.5113C239.38 24.1881 239.351 23.8354 239.351 23.4533C239.351 23.1006 239.321 22.7773 239.321 22.5128C239.292 22.1895 239.233 21.925 239.204 21.7487C239.145 21.5724 239.086 21.396 239.027 21.2197L241.232 20.4262L241.32 21.6017Z" fill="#F15A29"/>
<path d="M258.425 20.5734C258.425 20.691 258.425 20.8379 258.425 20.9555C258.425 21.0731 258.455 21.22 258.513 21.4257C258.572 21.6021 258.631 21.8666 258.749 22.1605C258.866 22.4544 259.013 22.8364 259.189 23.3067L261.482 28.7144C262.099 27.627 262.599 26.6571 262.981 25.8048C263.363 24.9525 263.627 24.1884 263.804 23.5124C263.98 22.8364 264.127 22.278 264.186 21.8078C264.245 21.3376 264.303 20.9261 264.333 20.5734H266.743C266.419 21.7196 266.067 22.8364 265.626 23.9239C265.214 25.0113 264.744 26.0987 264.215 27.1567C263.715 28.2148 263.157 29.2728 262.599 30.3015C262.04 31.3301 261.452 32.3587 260.865 33.3874C260.776 33.5637 260.63 33.8282 260.424 34.1221C260.247 34.4454 260.042 34.7687 259.836 35.092C259.63 35.4153 259.425 35.7092 259.248 35.9443C259.072 36.2088 258.925 36.3558 258.837 36.4145C258.719 36.5027 258.602 36.5321 258.455 36.5615C258.337 36.5615 258.22 36.5615 258.131 36.5615H256.104C256.574 36.0619 256.985 35.5329 257.426 34.9744C257.838 34.416 258.22 33.887 258.572 33.358C258.925 32.829 259.248 32.3294 259.542 31.8297C259.836 31.3301 260.101 30.8893 260.306 30.4778L256.956 23.1303C256.603 22.3368 256.309 21.7784 256.074 21.4257C255.839 21.0731 255.663 20.7498 255.486 20.5146H258.425V20.5734Z" fill="#F15A29"/>
<path d="M76.1201 41.0283H266.743" stroke="#FBB042" stroke-width="0.881695" stroke-miterlimit="10"/>
<path d="M125.965 59.9846C124.995 57.9567 124.966 55.5761 124.966 55.0471C124.966 50.3741 127.141 46.0244 133.313 46.0244C139.337 46.0244 141.63 50.1978 141.63 55.0471C141.63 57.0162 141.248 59.5143 139.749 61.4247C138.25 63.2762 136.134 64.0992 133.283 64.0992C129.492 64.0698 127.258 62.6003 125.965 59.9846ZM137.839 60.014C139.014 58.2506 139.132 55.9288 139.132 55.0765C139.132 52.4314 138.279 48.0229 133.313 48.0229C128.375 48.0229 127.464 52.3726 127.464 55.0765C127.464 55.7231 127.523 57.3689 128.199 58.9853C129.521 62.0125 132.519 62.1006 133.313 62.1006C134.576 62.1006 136.663 61.6892 137.839 60.014Z" fill="#F15A29"/>
<path d="M152.151 62.9527C151.417 63.3936 150.27 64.0989 148.272 64.0989C144.569 64.0989 144.569 61.8065 144.569 60.4546V57.1629C144.539 54.1946 144.51 53.6949 144.422 53.1071C144.363 52.7251 144.275 52.49 144.157 52.1961L146.802 51.3438V59.5141C146.802 60.9836 146.802 62.218 148.801 62.218C149.447 62.218 150.711 62.071 152.092 60.9248V55.958C152.063 52.8426 152.063 52.6663 151.71 51.5789H154.649C154.326 52.5487 154.267 52.8132 154.267 55.958V60.6309C154.267 61.4832 154.267 62.3355 154.62 63.3348L152.298 64.0695L152.151 62.9527Z" fill="#F15A29"/>
<path d="M157.147 51.4321C157.676 51.4909 157.882 51.5203 158.441 51.5497V48.6695L160.645 47.876V51.5497H162.878C163.29 51.5497 163.643 51.4909 164.054 51.4028C163.848 53.3131 163.79 53.4307 162.849 53.4307H160.645V60.2491C160.645 61.4247 160.792 62.2182 161.82 62.2182C162.761 62.2182 163.584 61.5716 164.26 60.8663C164.172 63.1293 164.054 63.2175 163.701 63.4232C163.319 63.6877 162.408 64.0698 161.203 64.0698C158.441 64.0698 158.441 62.1007 158.441 60.7487V53.4307H157.177V51.4321H157.147Z" fill="#F15A29"/>
<path d="M168.375 52.6957C168.845 52.2254 169.668 51.3438 171.196 51.3438C171.343 51.3438 172.107 51.3437 172.107 51.8434C172.107 51.9903 172.049 52.1667 171.99 52.4606L171.608 53.6655C171.373 53.5774 171.167 53.5186 170.755 53.5186C169.462 53.5186 168.727 54.3121 168.492 54.5472V59.5141C168.492 61.3363 168.522 62.0416 168.581 62.7176C168.639 63.3054 168.727 63.5699 168.845 63.8932H165.994C166.2 63.3054 166.347 62.9821 166.347 59.5435V57.3099C166.347 56.2225 166.347 54.8117 166.259 53.7537C166.229 53.0777 166.112 52.7251 165.965 52.343L168.228 51.4907L168.375 52.6957Z" fill="#F15A29"/>
<path d="M175.398 58.7793C175.545 59.6022 176.045 62.2179 178.514 62.2179C180.277 62.2179 181.306 61.1011 181.717 60.6896L182.716 62.1885C182.099 62.8057 180.777 64.0988 178.367 64.0988C174.693 64.0988 172.93 61.0423 172.93 57.6331C172.93 54.7529 174.282 51.373 178.014 51.373C181.952 51.373 182.364 55.1643 182.481 56.5163L175.398 58.7793ZM180.13 55.3995C179.983 54.6941 179.542 53.0189 177.897 53.0189C176.75 53.0189 175.222 54.1063 175.251 57.0159L180.13 55.3995Z" fill="#F15A29"/>
<path d="M184.481 53.4304C184.481 53.3423 184.422 53.1659 184.422 53.019C184.422 52.2254 186.509 51.3438 188.625 51.3438C192.357 51.3438 192.357 53.4892 192.357 54.6354V60.5134C192.357 62.1298 192.68 62.5413 193.327 63.0997L191.916 63.952C191.799 64.0108 191.622 64.0989 191.505 64.0989C191.328 64.0989 190.888 63.8638 190.564 62.894C190.182 63.2466 189.301 64.0989 187.42 64.0989C184.833 64.0989 184.128 62.1298 184.128 60.6897C184.128 57.3687 187.42 56.5164 190.065 56.34V55.1644C190.065 54.1064 189.947 53.1659 188.272 53.1659C188.007 53.1659 186.244 53.1659 184.775 54.6942L184.481 53.4304ZM190.123 58.221C188.389 58.3091 186.362 58.8088 186.362 60.7191C186.362 61.2481 186.538 62.3355 187.978 62.3355C188.36 62.3355 188.83 62.218 189.212 61.9829C189.977 61.5126 190.065 60.9542 190.123 60.484V58.221Z" fill="#F15A29"/>
<path d="M204.671 62.512C204.671 62.9528 204.436 63.1586 204.142 63.3349C203.084 63.9815 201.909 64.0696 201.115 64.0696C197.148 64.0696 195.59 60.8955 195.59 57.692C195.59 53.9301 197.53 51.3145 201.291 51.3145C203.525 51.3145 204.613 52.2255 204.848 52.49C204.995 52.637 204.995 52.8721 204.995 52.9603C204.995 53.166 204.848 53.5481 204.289 54.6649C203.907 54.224 202.996 53.166 201.321 53.166C199.734 53.166 197.97 54.3122 197.97 57.5745C197.97 59.9257 198.852 62.1887 201.409 62.1887C202.967 62.1887 203.995 61.3364 204.701 60.7486V62.512H204.671Z" fill="#F15A29"/>
<path d="M217.162 59.5147C217.162 60.9842 217.162 61.8071 217.25 62.7182C217.309 63.3353 217.397 63.5705 217.514 63.8938H214.664C214.781 63.5705 214.869 63.306 214.928 62.7182C215.016 61.6895 215.016 60.6021 215.016 59.5147V55.694C215.016 54.4596 215.016 53.2252 213.047 53.2252C211.254 53.2252 210.137 54.1657 209.726 54.5184V59.5147C209.726 61.3368 209.755 62.0422 209.814 62.7182C209.873 63.306 209.961 63.5705 210.079 63.8938H207.169C207.287 63.5705 207.375 63.306 207.434 62.7182C207.522 61.6895 207.522 60.6021 207.522 59.5147V50.8447C207.492 47.8763 207.463 47.3179 207.375 46.7301C207.316 46.348 207.228 46.1129 207.11 45.819L209.755 44.9961V52.5199C210.314 52.1378 211.401 51.3443 213.547 51.3443C215.016 51.3443 216.339 51.7851 216.897 52.8138C217.25 53.4604 217.25 53.9894 217.25 55.3707V59.5147H217.162Z" fill="#F15A29"/>
</svg>
