<svg width="80" height="80" viewBox="0 0 80 80" fill="none" xmlns="http://www.w3.org/2000/svg">
<path fill-rule="evenodd" clip-rule="evenodd" d="M78.5006 55.3956H37.821C37.0712 55.3956 36.415 54.7395 36.415 53.9896V47.2878C36.415 46.4911 37.0712 45.8818 37.821 45.8818H78.5006C79.2504 45.8818 79.9065 46.4911 79.9065 47.2878V53.9896C79.9065 54.7395 79.2504 55.3956 78.5006 55.3956Z" fill="black"/>
<path fill-rule="evenodd" clip-rule="evenodd" d="M42.8818 44.4753V40.7729C42.8818 36.3675 46.4436 32.8057 50.849 32.8057H65.4712C69.8766 32.8057 73.4384 36.3675 73.4384 40.7729V44.4753H42.8818Z" fill="#E97451"/>
<path fill-rule="evenodd" clip-rule="evenodd" d="M58.1606 30.0878C53.9427 30.0878 50.4746 26.6666 50.4746 22.4487C50.4746 18.1839 53.9427 14.7627 58.1606 14.7627C62.3785 14.7627 65.8466 18.1839 65.8466 22.4487C65.8466 26.6666 62.3785 30.0878 58.1606 30.0878Z" fill="#E97451"/>
<path fill-rule="evenodd" clip-rule="evenodd" d="M39.4145 27.4165C39.1333 27.4165 38.899 27.3228 38.6646 27.2291L28.4947 20.9959H12.9821C12.1854 20.9959 11.5762 20.3866 11.5762 19.6368V1.40598C11.5762 0.609256 12.1854 0 12.9821 0H43.445C44.1948 0 44.8509 0.609256 44.8509 1.40598V19.6368C44.8509 20.3866 44.1948 20.9959 43.445 20.9959H40.8205V26.0105C40.8205 26.5261 40.5393 26.9947 40.0706 27.2291C39.8831 27.3697 39.6488 27.4165 39.4145 27.4165ZM38.899 14.0598C39.3208 14.0598 39.6488 13.6848 39.6488 13.263C39.6488 12.8412 39.3208 12.4663 38.899 12.4663H17.5281C17.1063 12.4663 16.7783 12.8412 16.7783 13.263C16.7783 13.6848 17.1063 14.0598 17.5281 14.0598H38.899ZM38.899 8.52958C39.3208 8.52958 39.6488 8.15466 39.6488 7.73286C39.6488 7.31107 39.3208 6.98301 38.899 6.98301H17.5281C17.1063 6.98301 16.7783 7.31107 16.7783 7.73286C16.7783 8.15466 17.1063 8.52958 17.5281 8.52958H38.899Z" fill="#E97451"/>
<path fill-rule="evenodd" clip-rule="evenodd" d="M20.152 66.3151C19.8239 66.3151 19.449 66.2213 19.1678 65.9401L13.6845 60.5506C13.4033 60.3162 13.2627 59.9413 13.2627 59.5664V55.9109C13.2627 55.1141 13.9188 54.5049 14.6687 54.5049C15.4654 54.5049 16.1215 55.1141 16.1215 55.9109V58.9571L20.152 62.9407L24.2293 58.9571V55.9109C24.2293 55.1141 24.8386 54.5049 25.6353 54.5049C26.432 54.5049 27.0413 55.1141 27.0413 55.9109V59.5664C27.0413 59.9413 26.9007 60.3162 26.6195 60.5506L21.1362 65.9401C20.9018 66.2213 20.5269 66.3151 20.152 66.3151Z" fill="black"/>
<path fill-rule="evenodd" clip-rule="evenodd" d="M20.1523 79.9067H10.123V73.4392C10.123 73.0174 9.79496 72.6894 9.37317 72.6894C8.90451 72.6894 8.57645 73.0174 8.57645 73.4392V79.9067H1.40598C0.656122 79.9067 0 79.2506 0 78.4539V72.2676C0 66.6905 4.49912 62.1914 10.0762 62.1914H12.3257C13.1224 62.1914 13.7317 62.8007 13.7317 63.5974C13.7317 63.9723 13.638 64.3004 13.4036 64.5347L16.6374 68.8464L19.8243 65.0034L19.918 64.8628L20.0586 65.0034L24.3702 69.1276L26.9479 64.5347C26.7135 64.3004 26.5729 63.9723 26.5729 63.5974C26.5729 62.8007 27.2291 62.1914 27.9789 62.1914H30.2753C35.8055 62.1914 40.3046 66.6905 40.3046 72.2676V78.4539C40.3046 79.2506 39.6954 79.9067 38.8987 79.9067H31.7282V73.4392C31.7282 73.0174 31.4001 72.6894 30.9783 72.6894C30.5565 72.6894 30.1816 73.0174 30.1816 73.4392V79.9067H20.1523Z" fill="#E97451"/>
<path fill-rule="evenodd" clip-rule="evenodd" d="M31.541 44.8038C31.4942 44.8038 31.4473 44.8038 31.3536 44.8038C30.9786 44.71 30.6506 44.5226 30.4163 44.2414C28.9165 42.2262 28.1198 41.5232 27.4168 41.5232C26.5264 41.5232 25.1204 42.3199 23.7144 43.2103C23.0583 43.6321 22.1679 43.8196 20.9493 43.8196C19.8714 43.8196 18.6529 43.679 17.3875 43.5384C16.0284 43.3509 14.6225 43.1635 13.3571 43.1635C11.5762 43.1635 10.4514 43.5384 9.84214 44.2414C9.56095 44.5694 9.13915 44.71 8.71736 44.71C8.2487 44.71 7.87378 44.4757 7.59258 44.1476C5.38989 41.0545 5.57735 39.4142 6.09287 37.2584C6.28034 36.5085 6.4678 35.7118 6.4678 34.6807C6.51467 31.6813 8.20184 30.5566 12.7947 30.2754C16.5908 30.041 17.2938 29.6661 18.2311 29.1506C18.981 28.7757 19.8714 28.307 21.7929 27.7915C27.1825 26.3855 31.3536 28.7288 33.1345 34.0246C34.353 37.6802 34.3061 43.0697 32.4315 44.5226C32.1503 44.71 31.8691 44.8038 31.541 44.8038Z" fill="black"/>
<path fill-rule="evenodd" clip-rule="evenodd" d="M20.1526 58.7233C16.5908 58.7233 13.1227 57.2236 10.6857 54.5522C9.51402 53.24 5.1555 46.9599 7.49879 42.6014C7.87372 41.9453 8.76417 41.6641 9.46715 42.039C10.1233 42.414 10.4045 43.3044 10.0295 43.9605C8.7173 46.3975 11.4824 51.2247 12.7946 52.6307C14.6693 54.6928 17.3875 55.9113 20.1526 55.9113C21.8866 55.9113 23.5738 55.4427 25.0735 54.5991C26.9481 53.5212 28.026 52.3026 29.1508 49.9125C30.3693 47.4286 30.7443 45.179 30.2287 43.9137C29.9475 43.1638 30.2756 42.3671 31.0254 42.039C31.7284 41.7578 32.572 42.1328 32.8532 42.8357C33.978 45.6008 32.6189 49.2095 31.7284 51.131C30.6037 53.568 29.2445 55.4895 26.4795 57.083C24.558 58.1609 22.3553 58.7233 20.1526 58.7233Z" fill="black"/>
<path fill-rule="evenodd" clip-rule="evenodd" d="M16.6845 70.7202H16.6377C16.2159 70.7202 15.7941 70.4859 15.5597 70.1578L11.2012 64.4871C10.8732 64.0184 10.8263 63.3623 11.1075 62.8936L13.4508 58.8163C13.8726 58.1602 14.7162 57.9259 15.4191 58.3476C16.0753 58.7226 16.3096 59.613 15.9347 60.2691L14.0132 63.5029L16.6845 66.971L19.0278 64.0184C19.5433 63.4092 20.4338 63.3154 21.043 63.7841C21.6523 64.2996 21.746 65.1901 21.2774 65.7993L17.7624 70.1578C17.5281 70.5328 17.1063 70.7202 16.6845 70.7202Z" fill="black"/>
<path fill-rule="evenodd" clip-rule="evenodd" d="M23.6676 70.7202C23.1989 70.7202 22.824 70.5328 22.5428 70.1578L19.0278 65.7993C18.5592 65.1901 18.6529 64.2996 19.2622 63.7841C19.8714 63.3154 20.7619 63.4092 21.2774 64.0184L23.6207 66.971L26.292 63.5029L24.4174 60.2691C23.9956 59.613 24.2299 58.7226 24.9329 58.3476C25.5891 57.9259 26.4795 58.1602 26.8544 58.8163L29.1977 62.8936C29.5258 63.3623 29.4789 64.0184 29.104 64.4871L24.7923 70.1578C24.5111 70.4859 24.0893 70.7202 23.6676 70.7202Z" fill="black"/>
</svg>
