<svg width="80" height="80" viewBox="0 0 80 80" fill="none" xmlns="http://www.w3.org/2000/svg">
<g clip-path="url(#clip0_1696_672)">
<path d="M75 11.875H68.75C68.2527 11.875 67.7758 12.0725 67.4242 12.4242C67.0725 12.7758 66.875 13.2527 66.875 13.75C66.875 14.2473 67.0725 14.7242 67.4242 15.0758C67.7758 15.4275 68.2527 15.625 68.75 15.625H75C75.1657 15.6252 75.3245 15.6911 75.4417 15.8083C75.5589 15.9255 75.6248 16.0843 75.625 16.25V54.375H63.125V42.5C63.125 42.0027 62.9275 41.5258 62.5758 41.1742C62.2242 40.8225 61.7473 40.625 61.25 40.625C60.7527 40.625 60.2758 40.8225 59.9242 41.1742C59.5725 41.5258 59.375 42.0027 59.375 42.5V54.375H20.625V42.5C20.625 42.0027 20.4275 41.5258 20.0758 41.1742C19.7242 40.8225 19.2473 40.625 18.75 40.625C18.2527 40.625 17.7758 40.8225 17.4242 41.1742C17.0725 41.5258 16.875 42.0027 16.875 42.5V54.375H4.375V16.25C4.37522 16.0843 4.44113 15.9255 4.5583 15.8083C4.67546 15.6911 4.83431 15.6252 5 15.625H11.25C11.7473 15.625 12.2242 15.4275 12.5758 15.0758C12.9275 14.7242 13.125 14.2473 13.125 13.75C13.125 13.2527 12.9275 12.7758 12.5758 12.4242C12.2242 12.0725 11.7473 11.875 11.25 11.875H5C3.84011 11.8764 2.72812 12.3378 1.90796 13.158C1.08779 13.9781 0.626403 15.0901 0.625 16.25V63.75C0.626403 64.9099 1.08779 66.0219 1.90796 66.842C2.72812 67.6622 3.84011 68.1236 5 68.125H29.375V75.625H26.25C25.7527 75.625 25.2758 75.8225 24.9242 76.1742C24.5725 76.5258 24.375 77.0027 24.375 77.5C24.375 77.9973 24.5725 78.4742 24.9242 78.8258C25.2758 79.1775 25.7527 79.375 26.25 79.375H53.75C54.2473 79.375 54.7242 79.1775 55.0758 78.8258C55.4275 78.4742 55.625 77.9973 55.625 77.5C55.625 77.0027 55.4275 76.5258 55.0758 76.1742C54.7242 75.8225 54.2473 75.625 53.75 75.625H50.625V68.125H75C76.1599 68.1236 77.2719 67.6622 78.092 66.842C78.9122 66.0219 79.3736 64.9099 79.375 63.75V16.25C79.3736 15.0901 78.9122 13.9781 78.092 13.158C77.2719 12.3378 76.1599 11.8764 75 11.875ZM46.875 75.625H33.125V68.125H46.875V75.625ZM75 64.375H5C4.83434 64.3747 4.67556 64.3087 4.55842 64.1916C4.44128 64.0744 4.37533 63.9157 4.375 63.75V58.125H75.625V63.75C75.6247 63.9157 75.5587 64.0744 75.4416 64.1916C75.3244 64.3087 75.1657 64.3747 75 64.375Z" fill="black"/>
<path d="M26.25 48.125H53.75C54.2473 48.125 54.7242 47.9275 55.0758 47.5758C55.4275 47.2242 55.625 46.7473 55.625 46.25C55.625 45.7527 55.4275 45.2758 55.0758 44.9242C54.7242 44.5725 54.2473 44.375 53.75 44.375H26.25C25.7527 44.375 25.2758 44.5725 24.9242 44.9242C24.5725 45.2758 24.375 45.7527 24.375 46.25C24.375 46.7473 24.5725 47.2242 24.9242 47.5758C25.2758 47.9275 25.7527 48.125 26.25 48.125Z" fill="black"/>
<path d="M52.5 0.625H21.25C20.0901 0.626277 18.978 1.08762 18.1578 1.90782C17.3376 2.72801 16.8763 3.84007 16.875 5V32.5C16.8763 33.6599 17.3376 34.772 18.1578 35.5922C18.978 36.4124 20.0901 36.8737 21.25 36.875H58.75C59.9099 36.8737 61.022 36.4124 61.8422 35.5922C62.6624 34.772 63.1237 33.6599 63.125 32.5V11.25C63.1231 8.43265 62.0031 5.73123 60.0109 3.73906C58.0188 1.7469 55.3173 0.626877 52.5 0.625ZM38.75 10.625H46.25C46.7473 10.625 47.2242 10.8225 47.5758 11.1742C47.9275 11.5258 48.125 12.0027 48.125 12.5C48.125 12.9973 47.9275 13.4742 47.5758 13.8258C47.2242 14.1775 46.7473 14.375 46.25 14.375H38.75C38.2527 14.375 37.7758 14.1775 37.4242 13.8258C37.0725 13.4742 36.875 12.9973 36.875 12.5C36.875 12.0027 37.0725 11.5258 37.4242 11.1742C37.7758 10.8225 38.2527 10.625 38.75 10.625ZM27.5 31.875C26.6347 31.875 25.7888 31.6184 25.0694 31.1377C24.3499 30.6569 23.7892 29.9737 23.458 29.1742C23.1269 28.3748 23.0403 27.4951 23.2091 26.6465C23.3779 25.7978 23.7946 25.0183 24.4064 24.4064C25.0183 23.7946 25.7978 23.3779 26.6465 23.2091C27.4951 23.0403 28.3748 23.1269 29.1742 23.458C29.9737 23.7892 30.6569 24.3499 31.1377 25.0694C31.6184 25.7888 31.875 26.6347 31.875 27.5C31.8736 28.6599 31.4122 29.7719 30.592 30.592C29.7719 31.4122 28.6599 31.8736 27.5 31.875ZM35.2759 8.59009L29.0259 17.3401C28.8675 17.5616 28.6629 17.746 28.4261 17.8805C28.1893 18.0149 27.9261 18.0962 27.6547 18.1186C27.3833 18.141 27.1103 18.104 26.8547 18.0103C26.599 17.9165 26.3668 17.7682 26.1743 17.5757L22.4243 13.8257C22.0727 13.4741 21.8752 12.9972 21.8752 12.5C21.8752 12.0028 22.0727 11.5259 22.4243 11.1743C22.7759 10.8227 23.2528 10.6252 23.75 10.6252C24.2472 10.6252 24.7241 10.8227 25.0757 11.1743L27.2607 13.3593L32.2241 6.40991C32.3673 6.20953 32.5485 6.03931 32.7574 5.90896C32.9664 5.77862 33.1989 5.6907 33.4419 5.65024C33.6848 5.60977 33.9333 5.61754 34.1732 5.67312C34.4131 5.72869 34.6397 5.83097 34.8401 5.97412C35.0405 6.11728 35.2107 6.2985 35.341 6.50743C35.4714 6.71637 35.5593 6.94894 35.5998 7.19185C35.6402 7.43477 35.6325 7.68327 35.5769 7.92318C35.5213 8.16309 35.419 8.38971 35.2759 8.59009ZM56.25 29.375H38.75C38.2527 29.375 37.7758 29.1775 37.4242 28.8258C37.0725 28.4742 36.875 27.9973 36.875 27.5C36.875 27.0027 37.0725 26.5258 37.4242 26.1742C37.7758 25.8225 38.2527 25.625 38.75 25.625H56.25C56.7473 25.625 57.2242 25.8225 57.5758 26.1742C57.9275 26.5258 58.125 27.0027 58.125 27.5C58.125 27.9973 57.9275 28.4742 57.5758 28.8258C57.2242 29.1775 56.7473 29.375 56.25 29.375ZM59.375 11.875H51.875V4.375H52.5C54.3224 4.3782 56.0692 5.10355 57.3578 6.39217C58.6464 7.68079 59.3718 9.42762 59.375 11.25V11.875Z" fill="#E97451"/>
</g>
<defs>
<clipPath id="clip0_1696_672">
<rect width="80" height="80" fill="white"/>
</clipPath>
</defs>
</svg>
