<svg width="80" height="80" viewBox="0 0 80 80" fill="none" xmlns="http://www.w3.org/2000/svg">
<g clip-path="url(#clip0_1696_747)">
<path d="M52.7729 15.3229H43.9973L29.9812 1.3129C29.8062 1.13786 29.5983 0.999202 29.3694 0.904938C29.1405 0.810673 28.8953 0.762666 28.6477 0.763688C28.4002 0.764709 28.1553 0.814739 27.9273 0.910889C27.6992 1.00704 27.4924 1.14741 27.3188 1.32389L13.5518 15.3229H4.77246C3.61257 15.3243 2.50059 15.7857 1.68042 16.6059C0.86025 17.426 0.398864 18.538 0.397461 19.6979V74.8615C0.398867 76.0214 0.860254 77.1334 1.68042 77.9535C2.50059 78.7737 3.61257 79.2351 4.77246 79.2365H34.947C35.4443 79.2365 35.9212 79.0389 36.2729 78.6873C36.6245 78.3357 36.822 77.8588 36.822 77.3615C36.822 76.8642 36.6245 76.3873 36.2729 76.0357C35.9212 75.684 35.4443 75.4865 34.947 75.4865H4.77246C4.6068 75.4862 4.44802 75.4202 4.33088 75.3031C4.21375 75.1859 4.14779 75.0272 4.14746 74.8615V19.6979C4.14779 19.5323 4.21375 19.3735 4.33088 19.2563C4.44802 19.1392 4.6068 19.0732 4.77246 19.0729H52.7729C52.9386 19.0732 53.0974 19.1392 53.2145 19.2563C53.3317 19.3735 53.3976 19.5323 53.3979 19.6979V40.7734C53.3979 41.2706 53.5955 41.7475 53.9471 42.0992C54.2988 42.4508 54.7757 42.6484 55.2729 42.6484C55.7702 42.6484 56.2471 42.4508 56.5988 42.0992C56.9504 41.7475 57.1479 41.2706 57.1479 40.7734V19.6979C57.1465 18.538 56.6852 17.426 55.865 16.6059C55.0448 15.7857 53.9328 15.3243 52.7729 15.3229ZM18.8109 15.3229L28.6665 5.30094L38.6933 15.3229H18.8109Z" fill="black"/>
<path d="M49.0229 21.5723H8.52246C8.02522 21.5724 7.54838 21.77 7.19677 22.1216C6.84517 22.4732 6.64759 22.95 6.64746 23.4473V71.1108C6.64759 71.6081 6.84518 72.0849 7.19678 72.4365C7.54838 72.7881 8.02522 72.9857 8.52246 72.9858H34.947C35.4443 72.9858 35.9212 72.7883 36.2728 72.4367C36.6245 72.085 36.822 71.6081 36.822 71.1108C36.822 70.6136 36.6245 70.1366 36.2728 69.785C35.9212 69.4334 35.4443 69.2358 34.947 69.2358H24.9721L20.2106 60.9897C21.0334 60.4979 21.9055 60.0936 22.8125 59.7834L27.1467 67.2998C27.3112 67.585 27.5478 67.8219 27.8329 67.9867C28.1179 68.1514 28.4413 68.2382 28.7705 68.2383C29.0997 68.2385 29.4232 68.1519 29.7084 67.9874C29.9935 67.8229 30.2304 67.5862 30.395 67.3011L34.7629 59.739C35.2252 59.7845 35.688 59.6567 36.0615 59.3805C36.435 59.1043 36.6927 58.6992 36.7846 58.2439C36.8765 57.7885 36.7961 57.3152 36.559 56.9157C36.3219 56.5162 35.945 56.219 35.5012 56.0815C33.7892 55.5622 32.0118 55.2901 30.2229 55.2734H27.3347C23.532 55.277 19.8316 56.5049 16.7811 58.7754C13.7307 61.0458 11.4923 64.2382 10.3975 67.8798V25.3223H47.1479V41.9604C47.1479 42.4577 47.3455 42.9346 47.6971 43.2863C48.0488 43.6379 48.5257 43.8354 49.0229 43.8354C49.5202 43.8354 49.9971 43.6379 50.3488 43.2863C50.7004 42.9346 50.8979 42.4577 50.8979 41.9604V23.4473C50.8978 22.95 50.7002 22.4732 50.3486 22.1216C49.997 21.77 49.5202 21.5724 49.0229 21.5723ZM30.8255 59.0588L28.7727 62.6123L26.7239 59.0591C28.1404 58.996 29.8903 59.0177 30.8255 59.0588ZM17.2426 63.3481L20.6424 69.2358H13.9096C14.5217 67.0299 15.6662 65.0081 17.2426 63.3481Z" fill="black"/>
<path d="M39.7817 29.4629H17.7676C16.979 29.4639 16.2231 29.7777 15.6656 30.3354C15.1082 30.8931 14.7947 31.6492 14.7939 32.4377V36.1169C14.7949 36.9053 15.1085 37.6611 15.666 38.2185C16.2234 38.776 16.9792 39.0896 17.7676 39.0906H19.6462V42.4585C19.6448 43.6581 19.8799 44.8463 20.338 45.9551C20.7961 47.0638 21.4683 48.0714 22.3161 48.9202C23.1639 49.7689 24.1707 50.4423 25.2789 50.9017C26.3871 51.3611 27.575 51.5976 28.7747 51.5976C29.9743 51.5976 31.1622 51.3611 32.2704 50.9017C33.3786 50.4423 34.3854 49.7689 35.2332 48.9202C36.081 48.0714 36.7532 47.0638 37.2113 45.9551C37.6694 44.8463 37.9045 43.6581 37.9031 42.4585V39.0906H39.0066V44.1272C39.0066 44.3734 39.0551 44.6172 39.1493 44.8447C39.2435 45.0722 39.3816 45.2789 39.5558 45.453C39.7299 45.6271 39.9366 45.7652 40.1641 45.8595C40.3915 45.9537 40.6354 46.0022 40.8816 46.0022C41.1278 46.0022 41.3716 45.9537 41.5991 45.8595C41.8266 45.7652 42.0333 45.6271 42.2074 45.453C42.3815 45.2789 42.5196 45.0722 42.6139 44.8447C42.7081 44.6172 42.7566 44.3734 42.7566 44.1272V32.4377C42.7558 31.649 42.4421 30.8928 41.8844 30.3351C41.3267 29.7774 40.5705 29.4637 39.7817 29.4629ZM34.1531 42.4585C34.1541 43.1655 34.0158 43.8658 33.746 44.5192C33.4762 45.1727 33.0802 45.7666 32.5807 46.2669C32.0811 46.7672 31.4879 47.1641 30.8348 47.4349C30.1817 47.7057 29.4816 47.8451 28.7747 47.8451C28.0677 47.8451 27.3676 47.7057 26.7145 47.4349C26.0614 47.1641 25.4682 46.7672 24.9686 46.2669C24.4691 45.7666 24.0731 45.1727 23.8033 44.5192C23.5335 43.8658 23.3952 43.1655 23.3962 42.4585V39.0906H34.1531V42.4585ZM39.0066 35.3406H18.5439V33.2129H39.0066V35.3406Z" fill="black"/>
<path d="M65.5317 65.9431C65.5317 64.8048 65.1942 63.692 64.5617 62.7455C63.9293 61.799 63.0304 61.0613 61.9787 60.6256C60.927 60.19 59.7697 60.076 58.6533 60.2981C57.5368 60.5202 56.5112 61.0683 55.7063 61.8733C54.9014 62.6782 54.3532 63.7038 54.1311 64.8203C53.909 65.9367 54.023 67.094 54.4586 68.1457C54.8943 69.1974 55.632 70.0963 56.5785 70.7287C57.525 71.3612 58.6378 71.6987 59.7761 71.6987C61.3022 71.6973 62.7653 71.0905 63.8444 70.0114C64.9235 68.9323 65.5303 67.4692 65.5317 65.9431Z" fill="#E97451"/>
<path d="M77.8985 52.8388H71.2307L68.2866 46.7416C68.1472 46.4529 67.9293 46.2094 67.6578 46.039C67.3863 45.8686 67.0722 45.7783 66.7517 45.7783H52.8006C52.4801 45.7783 52.166 45.8686 51.8945 46.039C51.623 46.2094 51.4051 46.4529 51.2657 46.7416L48.3216 52.8388H41.6538C41.2018 52.839 40.7683 53.0186 40.4486 53.3382C40.129 53.6579 39.9493 54.0914 39.9492 54.5435V60.8835H52.7989C53.5959 59.7782 54.6442 58.8782 55.8573 58.2574C57.0703 57.6366 58.4135 57.3129 59.7762 57.3129C61.1389 57.3129 62.482 57.6366 63.6951 58.2574C64.9082 58.8782 65.9564 59.7782 66.7535 60.8835H79.6031V54.5435C79.603 54.0914 79.4234 53.6579 79.1037 53.3382C78.7841 53.0186 78.3506 52.839 77.8985 52.8388Z" fill="#E97451"/>
<path d="M68.4077 65.9426C68.4132 67.1724 68.1559 68.3892 67.6529 69.5114C67.1499 70.6336 66.413 71.6354 65.4914 72.4497C64.5698 73.2639 63.4848 73.8719 62.3092 74.2328C61.1335 74.5937 59.8943 74.6992 58.6746 74.5422C57.4549 74.3853 56.2827 73.9695 55.2367 73.3228C54.1908 72.676 53.295 71.8132 52.6096 70.7922C51.9241 69.7711 51.4648 68.6154 51.2623 67.4024C51.0598 66.1894 51.1188 64.9471 51.4355 63.7588H39.9492V77.3434C39.9493 77.7955 40.129 78.229 40.4486 78.5487C40.7683 78.8683 41.2018 79.0479 41.6538 79.0481H77.8984C78.3505 79.0479 78.784 78.8683 79.1036 78.5487C79.4233 78.229 79.6029 77.7955 79.6031 77.3434V63.7588H68.1168C68.3072 64.4712 68.405 65.2052 68.4077 65.9426ZM71.4424 73.6086H74.4222C74.8028 73.6098 75.1675 73.7618 75.4362 74.0313C75.705 74.3009 75.8559 74.666 75.8559 75.0466C75.8559 75.4273 75.705 75.7924 75.4362 76.062C75.1675 76.3315 74.8028 76.4835 74.4222 76.4846H71.4424C71.0617 76.4835 70.697 76.3315 70.4283 76.062C70.1595 75.7924 70.0086 75.4273 70.0086 75.0466C70.0086 74.666 70.1595 74.3009 70.4283 74.0313C70.697 73.7618 71.0618 73.6098 71.4424 73.6086Z" fill="#E97451"/>
</g>
<defs>
<clipPath id="clip0_1696_747">
<rect width="80" height="80" fill="white"/>
</clipPath>
</defs>
</svg>
